<svg width="88" height="77" viewBox="0 0 88 77" fill="none" xmlns="http://www.w3.org/2000/svg">
<path d="M4.97539 3.86751C1.08437 7.32757 1.08437 12.9438 4.97539 16.4038L62.7865 67.8119L76.8842 55.2756L19.0731 3.86751C15.1821 0.407445 8.86641 0.407445 4.97539 3.86751Z" fill="#F5C58A"/>
<path d="M12.3995 23.0158L4.96388 16.4037C1.0844 12.9231 1.10749 7.31715 5.02161 3.86736C8.91263 0.438095 15.1821 0.438095 19.0732 3.86736L26.5088 10.4795L12.3995 23.0158Z" fill="#F5C58A"/>
<path d="M26.503 10.482L12.4034 23.02L18.0123 28.0076L32.1119 15.4697L26.503 10.482Z" fill="white"/>
<path d="M62.7864 67.8117C62.7864 67.8117 34.7295 34.0838 69.841 61.5384C69.841 61.5384 25.1463 17.3995 76.8957 55.2651L86.0632 75.9536L62.7864 67.8117Z" fill="white"/>
<path d="M76.5725 72.6477C77.5655 70.2863 79.6553 68.4279 82.3109 67.5449L86.0403 75.9743L76.5725 72.6477Z" fill="#F5C58A"/>
<path d="M38.3089 22.4307C38.7591 22.8311 39.4981 22.8311 39.9484 22.4307C40.3987 22.0303 40.3987 21.3732 39.9484 20.9728L39.3711 20.4594C38.8977 20.0693 38.1588 20.1001 37.7316 20.521C37.3274 20.9112 37.3274 21.5169 37.7316 21.9174L38.3089 22.4307Z" fill="#333231"/>
<path d="M53.3186 51.8465C54.3462 52.0723 57.8678 53.5714 69.0559 62.319C69.5408 62.6989 70.2682 62.6476 70.6954 62.2266C71.088 61.8365 71.0764 61.241 70.6839 60.8611C70.6146 60.7892 63.6523 53.9204 58.4912 48.0065C58.0987 47.5548 57.3713 47.4623 56.8632 47.8114C56.3552 48.1605 56.2513 48.8074 56.6439 49.2591C56.6554 49.2694 56.6554 49.2694 56.667 49.2796C57.7638 50.5323 58.93 51.8259 60.1077 53.0785C54.1153 49.1462 52.5797 49.4234 51.6329 50.1934C50.4552 51.1483 50.5937 53.1299 54.9235 59.3724L14.0389 23.0263L26.5087 11.9377L30.469 15.4696L20.1699 24.628C19.7196 25.0284 19.7196 25.6855 20.1699 26.0859C20.6202 26.4864 21.3591 26.4864 21.8094 26.0859L32.1085 16.9276L34.3484 18.9194C34.7987 19.3198 35.5377 19.3198 35.988 18.9194C36.4383 18.519 36.4383 17.8619 35.988 17.4615L27.3169 9.75075L19.8812 3.13864C15.5746 -0.762913 8.53147 -0.834784 4.13242 2.9949C-0.266626 6.82458 -0.335903 13.0876 3.97078 16.9994C4.02851 17.0508 4.07469 17.0918 4.13242 17.1432C4.58272 17.5539 5.31012 17.5641 5.77196 17.1637C6.2338 16.7633 6.24535 16.1164 5.79505 15.7058C5.78351 15.6955 5.77196 15.6852 5.77196 15.6852C2.33124 12.6256 2.33124 7.6665 5.77196 4.60686C9.21268 1.54722 14.7894 1.54722 18.2301 4.60686L24.846 10.49L12.3994 21.5581L8.82012 18.3752C8.36982 17.9748 7.63087 17.9748 7.18058 18.3752C6.73028 18.7757 6.73028 19.4328 7.18058 19.8332L11.5796 23.745L61.4817 68.12C61.5509 68.1714 61.6202 68.2125 61.6895 68.2433L61.8396 68.4281C62.2322 68.8798 62.9596 68.9722 63.4676 68.6231C63.9641 68.2843 64.068 67.658 63.7101 67.2063C58.6991 61.1691 53.5726 53.8691 53.3186 51.8465Z" fill="#333231"/>
<path d="M87.1254 75.5845L77.9578 54.896C77.9578 54.8858 77.9463 54.8858 77.9463 54.8755C77.8885 54.7728 77.8193 54.6702 77.7269 54.588C77.7153 54.5777 77.7153 54.5572 77.7038 54.5469L43.0079 23.6939C42.5576 23.2934 41.8187 23.2934 41.3684 23.6939C40.9181 24.0943 40.9181 24.7514 41.3684 25.1518L62.3129 43.7766C53.0761 37.8113 52.06 38.643 51.2749 39.3104C50.2011 40.2139 50.4205 41.7437 54.6694 46.9081C55.0504 47.3701 55.7778 47.4728 56.2974 47.134C56.817 46.7952 56.9324 46.1483 56.5514 45.6863C55.3044 44.2694 54.2191 42.7499 53.307 41.1379C55.0966 41.7745 60.4078 44.5569 75.9257 55.9022L80.8328 66.9908C78.7314 67.9354 77.0226 69.4447 75.9719 71.3134L67.2777 68.264C66.6773 68.0484 66.0076 68.3051 65.7652 68.8287C65.5227 69.3626 65.8114 69.9581 66.4002 70.1737C66.4117 70.1737 66.4118 70.184 66.4233 70.184L85.6244 76.9295C86.2248 77.1349 86.8944 76.8782 87.1369 76.3443C87.2408 76.0979 87.2408 75.831 87.1254 75.5845ZM78.1425 72.0834C78.9392 70.7384 80.1746 69.6398 81.6872 68.9314L83.9848 74.1266L78.1425 72.0834Z" fill="#333231"/>
</svg>
