<?xml version="1.0" standalone="no"?>
  <!DOCTYPE svg PUBLIC "-//W3C//DTD SVG 1.1//EN" "http://www.w3.org/Graphics/SVG/1.1/DTD/svg11.dtd" >
  <svg>
  <metadata>
  Created by font-carrier
  </metadata>
  <defs>
  <font id="AngelusMedieval" horiz-adv-x="1185" vert-adv-y="1185" >
    <font-face
      
      font-family="Angelus Medieval"
      
      font-weight="400"
      
      font-stretch="normal"
      
      units-per-em="1000"
      
      ascent="900"
      
      descent="-300"
      
    />
      <missing-glyph />

      

      
      <glyph glyph-name="uni21" unicode="&#x21;" d="M138 680Q173 680 198 656.50Q223 633 223 598L147 176L129 176L53 598Q53 633 78 656.50Q103 680 138 680M64 73Q64 104 85.50 125.50Q107 147 138 147Q169 147 190.50 125.50Q212 104 212 73Q212 42 190.50 20.50Q169-1 138-1Q107-1 85.50 20.50Q64 42 64 73Z"  horiz-adv-x="276" vert-adv-y="1000"  />

      
      <glyph glyph-name="uni22" unicode="&#x22;" d="M373 599Q373 566 356.50 536.50Q340 507 317.50 483.50Q295 460 271.50 444.50Q248 429 233 425L233 439Q238 441 251.50 451Q265 461 279 475.50Q293 490 304 508Q315 526 315 545Q315 564 305.50 567.50Q296 571 284 571Q261 571 244.50 588Q228 605 228 628Q228 656 248.50 673.50Q269 691 297 691Q315 691 329 683Q343 675 352.50 662.50Q362 650 367.50 633.50Q373 617 373 599M175 599Q175 566 158.50 536.50Q142 507 119.50 483.50Q97 460 73.50 444.50Q50 429 35 425L35 439Q40 441 53.50 451Q67 461 81 475.50Q95 490 106 508Q117 526 117 545Q117 564 107.50 567.50Q98 571 86 571Q63 571 46.50 588Q30 605 30 628Q30 656 50.50 673.50Q71 691 99 691Q117 691 131 683Q145 675 154.50 662.50Q164 650 169.50 633.50Q175 617 175 599Z"  horiz-adv-x="403" vert-adv-y="1000"  />

      
      <glyph glyph-name="uni23" unicode="&#x23;" d="M339 469L457 469L525 661L605 661L537 469L665 469L639 396L511 396L471 281L606 281L580 207L445 207L378 16L297 16L365 207L247 207L179 16L98 16L166 207L34 207L60 281L192 281L233 396L93 396L120 469L259 469L327 661L407 661L339 469M312 396L271 280L392 280L433 396L312 396Z"  horiz-adv-x="699" vert-adv-y="1000"  />

      
      <glyph glyph-name="uni24" unicode="&#x24;" d="M227-35L227 17Q180 21 144 34Q108 47 82.50 66Q57 85 44 108.50Q31 132 31 157Q31 187 48 204.50Q65 222 95 222Q124 222 140 205Q156 188 156 159Q156 148 154 138.50Q152 129 152 119Q152 59 227 50L227 285Q139 315 96 360.50Q53 406 53 473Q53 508 65 539.50Q77 571 99.50 595.50Q122 620 154.50 636Q187 652 227 658L227 684L270 684L270 659Q356 654 402.50 618Q449 582 449 532Q449 506 433.50 489.50Q418 473 391 473Q364 473 347 493Q330 513 330 548Q330 550 330.50 552.50Q331 555 331 557Q331 589 316.50 605.50Q302 622 270 625L270 414Q474 354 474 206Q474 121 421 70Q368 19 270 14L270-35L227-35M227 625Q183 619 159 593.50Q135 568 135 533Q135 495 157 470.50Q179 446 227 429L227 625M270 51Q387 63 387 154Q387 199 358.50 226Q330 253 270 270L270 51L270 51Z"  horiz-adv-x="506" vert-adv-y="1000"  />

      
      <glyph glyph-name="uni25" unicode="&#x25;" d="M443 145Q443 186 461 227Q479 268 509 301Q539 334 577 354.50Q615 375 655 375Q712 375 745.50 340.50Q779 306 779 244Q779 205 764 163.50Q749 122 722.50 88.50Q696 55 660.50 33.50Q625 12 584 12Q554 12 528.50 22.50Q503 33 484 51.50Q465 70 454 94Q443 118 443 145M682 334Q652 334 625.50 305Q599 276 579.50 237.50Q560 199 548.50 161Q537 123 537 106Q537 80 552 64.50Q567 49 594 49Q627 49 655 70Q683 91 703.50 122Q724 153 736 188.50Q748 224 748 253Q748 290 729 312Q710 334 682 334M508 561Q454 535 410 535Q384 535 356 541Q358 531 358.50 523Q359 515 359 505Q359 465 343.50 424.50Q328 384 301 352Q274 320 239 299.50Q204 279 165 279Q135 279 109.50 289.50Q84 300 65 318Q46 336 35 360.50Q24 385 24 414Q24 455 42.50 495.50Q61 536 91 568Q121 600 159 620Q197 640 236 640Q272 640 297 626.50Q322 613 343 582Q362 577 377.50 574Q393 571 405 571Q448 571 483 588.50Q518 606 553 641L608 641L253 0L198 0L508 561M253 596Q225 592 201 563.50Q177 535 159 499.50Q141 464 130.50 429Q120 394 120 376Q120 314 174 314Q204 314 232 334.50Q260 355 281 385Q302 415 314.50 448.50Q327 482 327 508Q327 519 325 530Q323 541 319 555Q287 567 253 596Z"  horiz-adv-x="803" vert-adv-y="1000"  />

      
      <glyph glyph-name="uni26" unicode="&#x26;" d="M269 640Q249 640 234 626Q219 612 219 592Q219 576 223 565Q227 554 235 541L310 426Q312 427 320.50 436.50Q329 446 338 460Q347 474 354.50 491Q362 508 362 524Q362 546 353.50 566.50Q345 587 331.50 603.50Q318 620 301.50 630Q285 640 269 640M212 355Q194 339 180 319Q168 302 158 278.50Q148 255 148 227Q148 193 160 163Q172 133 193 110Q214 87 242.50 73.50Q271 60 305 60Q327 60 343.50 64.50Q360 69 372 75Q385 81 396 90L212 355M459 0L408 71Q403 65 385 51Q367 37 340.50 23Q314 9 281-1.50Q248-12 213-12Q177-12 143.50 0.50Q110 13 84.50 35Q59 57 43.50 87Q28 117 28 153Q28 199 49.50 236Q71 273 99.50 300.50Q128 328 157 345.50Q186 363 201 370Q198 376 190 390Q182 404 173.50 423Q165 442 159 464.50Q153 487 153 508Q153 540 164 569Q175 598 195 619.50Q215 641 242 654Q269 667 301 667Q326 667 348 658Q370 649 386.50 634Q403 619 413 598Q423 577 423 553Q423 527 409.50 502Q396 477 379 457Q362 437 346 423Q330 409 325 406L485 176Q489 180 499 196Q509 212 509 230Q509 253 498.50 269.50Q488 286 475.50 301Q463 316 452.50 332Q442 348 442 370Q442 395 460.50 414Q479 433 505 433Q524 433 538.50 424Q553 415 563 400.50Q573 386 578 368Q583 350 583 331Q583 302 571 272Q559 242 544 216.50Q529 191 515.50 174Q502 157 500 154L565 66Q574 54 587 45.50Q600 37 614 32Q628 27 641.50 24.50Q655 22 665 22L665 0L459 0Z"  horiz-adv-x="688" vert-adv-y="1000"  />

      
      <glyph glyph-name="uni27" unicode="&#x27;" d="M186 599Q186 566 169.50 536.50Q153 507 130.50 483.50Q108 460 84.50 444.50Q61 429 46 425L46 439Q51 441 64.50 451Q78 461 92 475.50Q106 490 117 508Q128 526 128 545Q128 564 118.50 567.50Q109 571 97 571Q74 571 57.50 588Q41 605 41 628Q41 656 61.50 673.50Q82 691 110 691Q128 691 142 683Q156 675 165.50 662.50Q175 650 180.50 633.50Q186 617 186 599Z"  horiz-adv-x="227" vert-adv-y="1000"  />

      
      <glyph glyph-name="uni28" unicode="&#x28;" d="M293-108Q179-43 118.50 60.50Q58 164 58 291Q58 417 118.50 521Q179 625 293 690L293 663Q250 636 224 600.50Q198 565 184.50 519.50Q171 474 166.50 417.50Q162 361 162 291Q162 221 166.50 164.50Q171 108 184.50 62.50Q198 17 224-18.50Q250-54 293-81L293-108Z"  horiz-adv-x="344" vert-adv-y="1000"  />

      
      <glyph glyph-name="uni29" unicode="&#x29;" d="M51-81Q94-54 120-18.50Q146 17 159.50 62.50Q173 108 177.50 164.50Q182 221 182 291Q182 361 177.50 417.50Q173 474 159.50 519.50Q146 565 120 600.50Q94 636 51 663L51 690Q165 625 225.50 521Q286 417 286 291Q286 164 225.50 60.50Q165-43 51-108L51-81L51-81Z"  horiz-adv-x="344" vert-adv-y="1000"  />

      
      <glyph glyph-name="uni2a" unicode="&#x2a;" d="M222 469Q201 479 181 483Q161 487 143.50 489Q126 491 111.50 493.50Q97 496 87 502Q70 513 65 530Q60 547 71 566Q82 586 99.50 591Q117 596 135 585Q145 579 154 567.50Q163 556 173.50 541.50Q184 527 197.50 512Q211 497 230 484Q228 507 222 526Q216 545 209 561.50Q202 578 197 591.50Q192 605 192 617Q192 637 204.50 650Q217 663 239 663Q262 663 274.50 650.50Q287 638 287 617Q287 605 281.50 591.50Q276 578 269.50 561.50Q263 545 256.50 526Q250 507 248 484Q267 497 280.50 512Q294 527 305 541Q316 555 325 566.50Q334 578 344 584Q361 595 378.50 590Q396 585 407 566Q418 546 413.50 529Q409 512 391 501Q380 495 365.50 493Q351 491 334 489Q317 487 297 483Q277 479 256 469Q277 459 297 455Q317 451 334.50 448.50Q352 446 366.50 444Q381 442 391 436Q408 425 413 408Q418 391 407 372Q396 352 378.50 347Q361 342 343 353Q332 359 323.50 370.50Q315 382 304.50 396.50Q294 411 280.50 426Q267 441 248 454Q250 431 256 412Q262 393 269 376.50Q276 360 281 346.50Q286 333 286 321Q286 301 273.50 288Q261 275 239 275Q216 275 203.50 287.50Q191 300 191 321Q191 333 196.50 346.50Q202 360 208.50 376.50Q215 393 221.50 412Q228 431 230 454Q211 441 197.50 426Q184 411 173 397Q162 383 153 371.50Q144 360 134 354Q117 343 99.50 348Q82 353 71 372Q60 392 64.50 409Q69 426 87 437Q97 443 112 445Q127 447 144 449Q161 451 181 455Q201 459 222 469Z"  horiz-adv-x="478" vert-adv-y="1000"  />

      
      <glyph glyph-name="uni2b" unicode="&#x2b;" d="M370 335L596 335L596 262L370 262L370 30L295 30L295 262L69 262L69 335L295 335L295 566L370 566L370 335Z"  horiz-adv-x="665" vert-adv-y="1000"  />

      
      <glyph glyph-name="uni2c" unicode="&#x2c;" d="M195 47Q195 13 180.50-17Q166-47 144.50-70.50Q123-94 96.50-110Q70-126 46-132L46-118Q60-114 74.50-104.50Q89-95 101-82.50Q113-70 120.50-53.50Q128-37 128-18Q128-7 124.50 3.50Q121 14 110 14Q85 14 67 27.50Q49 41 49 72Q49 103 69 125Q89 147 120 147Q135 147 149 138.50Q163 130 173 115.50Q183 101 189 83Q195 65 195 47Z"  horiz-adv-x="251" vert-adv-y="1000"  />

      
      <glyph glyph-name="uni2d" unicode="&#x2d;" d="M41 292L291 292L291 176L41 176L41 292Z"  horiz-adv-x="332" vert-adv-y="1000"  />

      
      <glyph glyph-name="uni2e" unicode="&#x2e;" d="M62 73Q62 104 83.50 125.50Q105 147 136 147Q167 147 188.50 125.50Q210 104 210 73Q210 42 188.50 20.50Q167-1 136-1Q105-1 83.50 20.50Q62 42 62 73Z"  horiz-adv-x="272" vert-adv-y="1000"  />

      
      <glyph glyph-name="uni2f" unicode="&#x2f;" d="M244 734L302 734L6-93L-51-93L244 734Z"  horiz-adv-x="278" vert-adv-y="1000"  />

      
      <glyph glyph-name="uni30" unicode="&#x30;" d="M259 658Q225 658 207 626.50Q189 595 180.50 547.50Q172 500 171 444Q170 388 170 338Q170 288 171 229Q172 170 180.50 119Q189 68 207 34Q225 0 259 0Q293 0 311 33Q329 66 337 115.50Q345 165 346.50 222.50Q348 280 348 330Q348 380 346.50 437.50Q345 495 337 544Q329 593 311 625.50Q293 658 259 658M255 678Q314 678 357 645.50Q400 613 428.50 562Q457 511 471 449Q485 387 485 329Q485 271 472 209Q459 147 431 96Q403 45 360.50 12.50Q318-20 259-20Q200-20 157 12.50Q114 45 85.50 96Q57 147 43 209Q29 271 29 329Q29 387 42 449Q55 511 83 562Q111 613 153.50 645.50Q196 678 255 678Z"  horiz-adv-x="514" vert-adv-y="1000"  />

      
      <glyph glyph-name="uni31" unicode="&#x31;" d="M86 21Q93 24 102 29Q111 34 118.50 41.50Q126 49 131 58.50Q136 68 136 79L136 495Q136 511 128 526Q120 541 107 552.50Q94 564 77.50 571.50Q61 579 44 581L44 589Q108 597 163 619.50Q218 642 270 671L270 97Q272 63 284.50 48Q297 33 312 22L312 0L86 0L86 22L86 21Z"  horiz-adv-x="366" vert-adv-y="1000"  />

      
      <glyph glyph-name="uni32" unicode="&#x32;" d="M151 153Q163 168 187 201.50Q211 235 235 280Q259 325 277 377Q295 429 295 482Q295 511 289 540.50Q283 570 270 593.50Q257 617 236.50 632Q216 647 187 647Q159 647 138 628.50Q117 610 117 582Q117 566 123.50 554Q130 542 138 531Q146 520 152.50 508Q159 496 159 480Q159 456 145 437Q131 418 107 418Q75 418 57 443Q39 468 39 500Q39 537 54 568Q69 599 94.50 621.50Q120 644 153 657Q186 670 223 670Q264 670 302 655.50Q340 641 368.50 615.50Q397 590 414 554.50Q431 519 431 478Q431 433 413 392.50Q395 352 366.50 316Q338 280 304 249.50Q270 219 238 194Q206 169 180 150Q154 131 143 118L361 118Q369 118 378.50 123.50Q388 129 397.50 138Q407 147 415.50 158.50Q424 170 430 182L442 182L396 0L24 0L151 153Z"  horiz-adv-x="485" vert-adv-y="1000"  />

      
      <glyph glyph-name="uni33" unicode="&#x33;" d="M455 661L276 437Q282 439 292.50 440Q303 441 313 441Q348 441 376 425.50Q404 410 423.50 384.50Q443 359 453.50 326Q464 293 464 258Q464 214 451 173Q438 132 414 98Q390 64 357 38.50Q324 13 285 0Q268-5 250-8.50Q232-12 212-12Q179-12 145.50-2Q112 8 85.50 26Q59 44 42.50 68.50Q26 93 26 121Q26 146 42 165Q58 184 83 183Q109 182 125 163.50Q141 145 147 119Q151 102 155.50 83.50Q160 65 169 49.50Q178 34 193 24Q208 14 232 14Q257 14 277 25Q296 35 310.50 53.50Q325 72 334 95.50Q343 119 347.50 144.50Q352 170 353 196Q354 223 346.50 250Q339 277 324.50 298.50Q310 320 288.50 333Q267 346 240 346Q219 346 205 338.50Q191 331 171 325L164 332L338 548L176 548Q156 548 141 542Q126 536 114 527.50Q102 519 93.50 509Q85 499 79 491L71 496L120 675Q122 670 126 666.50Q130 663 146 662L455 661Z"  horiz-adv-x="516" vert-adv-y="1000"  />

      
      <glyph glyph-name="uni34" unicode="&#x34;" d="M125 22Q146 22 165.50 25.50Q185 29 199.50 37.50Q214 46 223 60.50Q232 75 232 98L232 186L18 186Q42 228 63 275.50Q84 323 98.50 380.50Q113 438 119.50 507Q126 576 122 662L274 662Q251 597 224.50 529Q198 461 168.50 399.50Q139 338 108 288Q77 238 46 208L232 208L232 388Q232 400 224.50 408Q217 416 206 420Q228 432 249.50 453Q271 474 290.50 499Q310 524 326 552Q342 580 352 606L352 208L448 208L448 186L352 186L352 98Q352 75 362 60.50Q372 46 386.50 37.50Q401 29 417.50 25.50Q434 22 448 22L448 0L125 0L125 22L125 22Z"  horiz-adv-x="465" vert-adv-y="1000"  />

      
      <glyph glyph-name="uni35" unicode="&#x35;" d="M365 662Q376 662 387 668.50Q398 675 406 685Q404 673 397.50 650.50Q391 628 382 605.50Q373 583 361.50 566.50Q350 550 337 550L128 550L108 458Q117 458 127 459Q135 460 145 460.50Q155 461 163 461Q220 461 267.50 444Q315 427 349.50 396Q384 365 403 323Q422 281 422 230Q422 182 405 138Q388 94 358 60.50Q328 27 286.50 7.50Q245-12 197-12Q166-12 135-3Q104 6 78.50 22Q53 38 37 58.50Q21 79 21 103Q21 126 36.50 144Q52 162 75 162Q106 162 122 144.50Q138 127 146 103Q151 87 156.50 71Q162 55 170 42Q178 29 191.50 21Q205 13 227 13Q251 13 270.50 23Q290 33 304 49.50Q318 66 325.50 87.50Q333 109 333 133Q333 187 315 226.50Q297 266 267 292.50Q237 319 197 331.50Q157 344 112 344Q98 344 89 343Q80 342 66 341L134 662L365 662Z"  horiz-adv-x="465" vert-adv-y="1000"  />

      
      <glyph glyph-name="uni36" unicode="&#x36;" d="M461 647Q393 647 339 616.50Q285 586 247.50 535.50Q210 485 189.50 420.50Q169 356 169 289Q169 245 175.50 196.50Q182 148 197 108Q212 68 236.50 42Q261 16 297 16Q318 16 334 27Q350 38 360.50 55Q371 72 376 94Q381 116 381 137Q381 174 370.50 212.50Q360 251 342 282.50Q324 314 298.50 333.50Q273 353 243 353Q208 353 191 323L181 327Q186 346 199 365Q212 384 230.50 399Q249 414 272 423.50Q295 433 321 433Q357 433 386 416.50Q415 400 435.50 372.50Q456 345 466.50 310Q477 275 477 239Q477 191 460.50 146Q444 101 416 66Q388 31 349.50 9.50Q311-12 268-12Q214-12 170 11.50Q126 35 95.50 73.50Q65 112 48 162Q31 212 31 265Q31 350 66 423.50Q101 497 160 550.50Q219 604 297 634.50Q375 665 461 665L461 647Z"  horiz-adv-x="502" vert-adv-y="1000"  />

      
      <glyph glyph-name="uni37" unicode="&#x37;" d="M441 662L413 568L401 548Q347 492 317.50 427Q288 362 275 291.50Q262 221 262.50 147.50Q263 74 271 0L119 0Q121 37 128.50 82.50Q136 128 150.50 177.50Q165 227 186 278Q207 329 235 377.50Q263 426 298.50 470Q334 514 377 548L139 548Q122 548 110.50 547Q99 546 90 542Q81 538 72.50 531Q64 524 53 511L50 584L82 680Q87 670 94.50 666Q102 662 110 662L441 662Z"  horiz-adv-x="462" vert-adv-y="1000"  />

      
      <glyph glyph-name="uni38" unicode="&#x38;" d="M166 344Q159 341 148.50 331Q138 321 128 306.50Q118 292 111 275Q104 258 104 241Q104 213 119.50 176.50Q135 140 162 108Q189 76 225 53.50Q261 31 302 31Q335 31 356.50 55.50Q378 80 378 113Q378 137 364 162Q350 187 328.50 210.50Q307 234 281.50 255.50Q256 277 232.50 294.50Q209 312 190.50 325Q172 338 166 344M233 550Q218 555 203.50 569Q189 583 189 603Q189 621 197.50 635Q206 649 220.50 658.50Q235 668 252.50 673Q270 678 288 678Q314 678 336 667.50Q358 657 374.50 639.50Q391 622 400.50 599Q410 576 410 550Q410 523 398 498.50Q386 474 369.50 454Q353 434 335 420.50Q317 407 306 402Q321 393 344.50 375.50Q368 358 390.50 333.50Q413 309 429.50 278.50Q446 248 446 214Q446 169 430 128Q414 87 385.50 56Q357 25 318 7Q279-11 234-11Q193-11 154.50 2Q116 15 86 39Q56 63 38 96.50Q20 130 20 171Q20 204 37 235.50Q54 267 76.50 292.50Q99 318 120.50 335Q142 352 150 356Q141 362 124 377.50Q107 393 90.50 415.50Q74 438 62 466.50Q50 495 50 527Q50 559 62 586Q74 613 93.50 633Q113 653 136.50 665Q160 677 184 680L184 671Q178 669 170.50 662Q163 655 156 645Q149 635 144.50 622.50Q140 610 140 598Q140 566 160.50 536.50Q181 507 207 482.50Q233 458 258 440Q283 422 292 413Q299 415 310 424.50Q321 434 331.50 448.50Q342 463 350 480.50Q358 498 358 516Q358 548 340 573Q322 598 290 598Q273 598 254.50 587.50Q236 577 236 561Q236 555 239 549L233 549L233 550Z"  horiz-adv-x="480" vert-adv-y="1000"  />

      
      <glyph glyph-name="uni39" unicode="&#x39;" d="M235 670Q289 670 333 646Q377 622 408 582.50Q439 543 456 491.50Q473 440 473 386Q473 325 454.50 270.50Q436 216 405 171Q374 126 332 90.50Q290 55 243 31.50Q196 8 146.50-4Q97-16 51-14L51 6Q115 9 168 40Q221 71 258.50 120.50Q296 170 316.50 232.50Q337 295 337 362Q337 407 329.50 456.50Q322 506 305.50 546.50Q289 587 263.50 613.50Q238 640 201 640Q180 640 165 629.50Q150 619 140 602Q130 585 125.50 564Q121 543 121 522Q121 484 129 446Q137 408 154.50 377.50Q172 347 198.50 327.50Q225 308 263 308Q280 308 294.50 317Q309 326 313 338L322 338Q319 322 308.50 302.50Q298 283 280.50 265.50Q263 248 239.50 236Q216 224 187 224Q149 224 119 241Q89 258 68 286.50Q47 315 36 350.50Q25 386 25 424Q25 471 41 515.50Q57 560 85 594.50Q113 629 151.50 649.50Q190 670 235 670Z"  horiz-adv-x="504" vert-adv-y="1000"  />

      
      <glyph glyph-name="uni3a" unicode="&#x3a;" d="M64 368Q64 399 85.50 420.50Q107 442 138 442Q169 442 190.50 420.50Q212 399 212 368Q212 337 190.50 315.50Q169 294 138 294Q107 294 85.50 315.50Q64 337 64 368M62 73Q62 104 83.50 125.50Q105 147 136 147Q167 147 188.50 125.50Q210 104 210 73Q210 42 188.50 20.50Q167-1 136-1Q105-1 83.50 20.50Q62 42 62 73Z"  horiz-adv-x="274" vert-adv-y="1000"  />

      
      <glyph glyph-name="uni3b" unicode="&#x3b;" d="M62 368Q62 399 83.50 420.50Q105 442 136 442Q167 442 188.50 420.50Q210 399 210 368Q210 337 188.50 315.50Q167 294 136 294Q105 294 83.50 315.50Q62 337 62 368M211 47Q211 13 196.50-17Q182-47 160.50-70.50Q139-94 112.50-110Q86-126 62-132L62-118Q76-114 90.50-104.50Q105-95 117-82.50Q129-70 136.50-53.50Q144-37 144-18Q144-7 140.50 3.50Q137 14 126 14Q101 14 83 27.50Q65 41 65 72Q65 103 85 125Q105 147 136 147Q151 147 165 138.50Q179 130 189 115.50Q199 101 205 83Q211 65 211 47Z"  horiz-adv-x="273" vert-adv-y="1000"  />

      
      <glyph glyph-name="uni3c" unicode="&#x3c;" d="M280 298L650 148L650 76L184 267L184 330L650 522L650 448L280 298Z"  horiz-adv-x="833" vert-adv-y="1000"  />

      
      <glyph glyph-name="uni3d" unicode="&#x3d;" d="M652 347L179 347L179 414L652 414L652 347M652 184L179 184L179 250L652 250L652 184Z"  horiz-adv-x="833" vert-adv-y="1000"  />

      
      <glyph glyph-name="uni3e" unicode="&#x3e;" d="M650 267L184 76L184 148L553 298L184 448L184 522L650 330L650 267Z"  horiz-adv-x="833" vert-adv-y="1000"  />

      
      <glyph glyph-name="uni3f" unicode="&#x3f;" d="M205 355Q205 391 222 411Q239 431 284 436Q301 437 316.50 446Q332 455 343.50 469Q355 483 361.50 500.50Q368 518 368 538Q368 559 361.50 580Q355 601 344 618Q333 635 318.50 645.50Q304 656 289 656Q263 656 246.50 636.50Q230 617 214 593Q198 569 179.50 549.50Q161 530 131 530Q105 530 87.50 549Q70 568 70 594Q70 616 84 633.50Q98 651 119.50 663Q141 675 168 681.50Q195 688 221 688Q271 688 316.50 670Q362 652 396.50 620.50Q431 589 451.50 546Q472 503 472 453Q472 415 457 387.50Q442 360 419.50 342.50Q397 325 370.50 316.50Q344 308 320 308Q273 308 255.50 293Q238 278 235 260L220 176L205 176L205 355M137 73Q137 104 158.50 125.50Q180 147 211 147Q242 147 263.50 125.50Q285 104 285 73Q285 42 263.50 20.50Q242-1 211-1Q180-1 158.50 20.50Q137 42 137 73Z"  horiz-adv-x="542" vert-adv-y="1000"  />

      
      <glyph glyph-name="uni41" unicode="&#x41;" d="M205 264L435 264L323 577L205 264M431 662L635 98Q646 66 675.50 44Q705 22 741 22L741 0L400 0L400 22Q415 22 434 27.50Q453 33 468.50 43.50Q484 54 491.50 70.50Q499 87 491 109L449 228L193 228L171 147Q169 138 173 117.50Q177 97 187.50 75.50Q198 54 215.50 38Q233 22 257 22L257 0L4 0L4 22Q23 22 44 38.50Q65 55 84 77.50Q103 100 117 123.50Q131 147 136 161L331 662L431 662Z"  horiz-adv-x="754" vert-adv-y="1000"  />

      
      <glyph glyph-name="uni42" unicode="&#x42;" d="M37 22Q55 22 73 25.50Q91 29 105 38Q119 47 128 62Q137 77 137 100L137 562Q137 585 128 601.50Q119 618 105 628.50Q91 639 73 643.50Q55 648 37 648L37 662L353 662Q371 662 400.50 658Q430 654 463 645.50Q496 637 530.50 624Q565 611 592 592.50Q619 574 636.50 550Q654 526 654 496Q654 462 632 437Q610 412 580.50 395.50Q551 379 521.50 370Q492 361 477 360Q506 356 544 344Q582 332 616.50 309.50Q651 287 675 253Q699 219 699 170Q699 126 675 94Q651 62 614.50 41Q578 20 535.50 10Q493 0 456 0L37 0L37 22M376 377Q403 377 429 386.50Q455 396 475.50 412.50Q496 429 509 452.50Q522 476 522 504Q522 535 506 559Q490 583 465.50 599.50Q441 616 411 624.50Q381 633 353 633Q335 633 317 629Q299 625 285 617Q271 609 262 595Q253 581 253 562L253 377L376 377L376 377M253 100Q253 53 271 37.50Q289 22 325 22L412 22Q438 22 465 34.50Q492 47 513.50 68.50Q535 90 548 118.50Q561 147 561 179Q559 215 542 246Q525 277 499 299.50Q473 322 441.50 334.50Q410 347 379 347L253 347L253 100Z"  horiz-adv-x="746" vert-adv-y="1000"  />

      
      <glyph glyph-name="uni43" unicode="&#x43;" d="M548 672Q549 616 563.50 564Q578 512 608 464Q578 459 555.50 466.50Q533 474 514.50 489Q496 504 480 523.50Q464 543 449 564Q436 581 422.50 597Q409 613 393.50 625.50Q378 638 359.50 645.50Q341 653 318 653Q276 653 249 630Q222 607 205.50 571Q189 535 182.50 491.50Q176 448 176 406Q176 347 194 292Q212 237 245.50 193.50Q279 150 326 124Q373 98 432 98Q492 98 530.50 130Q569 162 598 218L608 209Q592 159 567.50 117.50Q543 76 510.50 46.50Q478 17 436.50 0.50Q395-16 344-16Q271-16 216 12.50Q161 41 123.50 88.50Q86 136 67 198Q48 260 48 328Q48 394 68 456.50Q88 519 125.50 568Q163 617 216 646.50Q269 676 335 676Q358 676 382.50 671.50Q407 667 428.50 662Q450 657 466.50 652.50Q483 648 491 648Q509 648 520 656.50Q531 665 548 672Z"  horiz-adv-x="632" vert-adv-y="1000"  />

      
      <glyph glyph-name="uni44" unicode="&#x44;" d="M260 100Q260 77 267.50 62Q275 47 287 38.50Q299 30 315 27Q331 24 348 24Q396 24 429.50 49Q463 74 484 114Q505 154 514.50 203Q524 252 524 300Q524 339 516.50 379Q509 419 495.50 457Q482 495 464 528Q446 561 424 586.50Q402 612 377 626.50Q352 641 326 642Q298 643 279 623Q260 603 260 572L260 100M346 662Q408 662 468 630Q528 598 575 545Q622 492 651 423Q680 354 680 280Q680 216 658.50 164.50Q637 113 604 76.50Q571 40 531.50 20Q492 0 455 0L32 0L32 22Q50 22 68 25.50Q86 29 100 38Q114 47 123 62Q132 77 132 100L132 562Q132 585 123 601.50Q114 618 100 628.50Q86 639 68 643.50Q50 648 32 648L32 662L346 662Z"  horiz-adv-x="727" vert-adv-y="1000"  />

      
      <glyph glyph-name="uni45" unicode="&#x45;" d="M657 181Q628 132 613 79.50Q598 27 592-28Q556-8 519-4Q482 0 448 0L38 0L38 22Q56 22 74 25.50Q92 29 106 38Q120 47 129 62Q138 77 138 100L138 562Q138 585 129 601.50Q120 618 106 628.50Q92 639 74 643.50Q56 648 38 648L38 662L580 662Q581 620 588.50 577Q596 534 628 488L627 479Q594 486 571.50 497.50Q549 509 531 524Q513 539 498 555.50Q483 572 467 590Q451 607 431 620.50Q411 634 385 634L325 634Q315 634 304.50 629.50Q294 625 285.50 617Q277 609 271.50 597.50Q266 586 266 572L266 370L403 370Q430 368 447.50 378Q465 388 482 401Q499 414 519.50 427Q540 440 573 445Q557 405 556.50 356Q556 307 573 262Q555 260 533.50 272.50Q512 285 489.50 301Q467 317 445 330.50Q423 344 403 344L266 344L266 77Q266 63 272.50 53Q279 43 288.50 36.50Q298 30 308 27Q318 24 325 24L403 24Q421 25 437.50 37Q454 49 470.50 66.50Q487 84 505 104Q523 124 545 141Q567 158 594.50 169.50Q622 181 657 181Z"  horiz-adv-x="695" vert-adv-y="1000"  />

      
      <glyph glyph-name="uni46" unicode="&#x46;" d="M38 22Q56 22 74 25.50Q92 29 106 38Q120 47 129 62Q138 77 138 100L138 562Q138 585 129 601.50Q120 618 106 628.50Q92 639 74 643.50Q56 648 38 648L38 662L580 662Q581 620 588.50 577Q596 534 628 488Q595 495 572 505.50Q549 516 531 528.50Q513 541 498 556.50Q483 572 467 590Q451 607 431 620.50Q411 634 385 634L325 634Q315 634 304.50 629.50Q294 625 285.50 617Q277 609 271.50 597.50Q266 586 266 572L266 370L403 370Q430 368 447.50 378Q465 388 482 401Q499 414 519.50 427Q540 440 573 445Q557 405 556.50 356Q556 307 573 262Q555 260 533.50 272.50Q512 285 489.50 301Q467 317 445 330.50Q423 344 403 344L266 344L266 100Q266 77 275 62Q284 47 298 38Q312 29 330 25.50Q348 22 366 22L366 0L38 0L38 22Z"  horiz-adv-x="640" vert-adv-y="1000"  />

      
      <glyph glyph-name="uni47" unicode="&#x47;" d="M49 318Q49 387 71.50 450.50Q94 514 134.50 563.50Q175 613 232 642.50Q289 672 358 672Q396 672 419 669Q442 666 458 662Q474 658 486.50 655Q499 652 516 652Q542 652 559 659Q576 666 602 672Q591 619 599 567Q607 515 642 462Q604 467 575 483Q546 499 522.50 520Q499 541 479.50 563.50Q460 586 440 605.50Q420 625 397.50 637.50Q375 650 346 650Q304 650 275 629Q246 608 227 574.50Q208 541 199.50 499.50Q191 458 191 416Q191 389 196.50 349.50Q202 310 213.50 267Q225 224 243.50 181.50Q262 139 288.50 105Q315 71 350 50Q385 29 429 29Q456 29 472.50 37.50Q489 46 497.50 57.50Q506 69 509 79.50Q512 90 512 94L512 256Q512 264 507.50 276Q503 288 492 299Q481 310 461.50 318Q442 326 411 326L410 344L732 344L732 328Q642 328 642 237L642 10Q639 15 633.50 22Q628 29 620.50 35Q613 41 603.50 45.50Q594 50 584 50Q561 50 539 39.50Q517 29 490.50 16.50Q464 4 430-6.50Q396-17 349-17Q286-17 231 10.50Q176 38 135.50 84.50Q95 131 72 191.50Q49 252 49 318Z"  horiz-adv-x="758" vert-adv-y="1000"  />

      
      <glyph glyph-name="uni48" unicode="&#x48;" d="M431 0L431 22Q449 22 467 25.50Q485 29 499 38Q513 47 522 62Q531 77 531 100L531 340L262 340L262 100Q262 77 271 62Q280 47 294 38Q308 29 326 25.50Q344 22 362 22L362 0L34 0L34 22Q52 22 70 25.50Q88 29 102 38Q116 47 125 62Q134 77 134 100L134 562Q134 585 125 601.50Q116 618 102 628.50Q88 639 70 643.50Q52 648 34 648L34 662L362 662L362 648Q344 648 326 643.50Q308 639 294 628.50Q280 618 271 601.50Q262 585 262 562L262 376L531 376L531 562Q531 585 522 601.50Q513 618 499 628.50Q485 639 467 643.50Q449 648 431 648L431 662L759 662L759 648Q741 648 723 643.50Q705 639 691 628.50Q677 618 668 601.50Q659 585 659 562L659 100Q659 77 668 62Q677 47 691 38Q705 29 723 25.50Q741 22 759 22L759 0L431 0Z"  horiz-adv-x="793" vert-adv-y="1000"  />

      
      <glyph glyph-name="uni49" unicode="&#x49;" d="M34 0L34 22Q52 22 70 25.50Q88 29 102 38Q116 47 125 62Q134 77 134 100L134 562Q134 585 125 601.50Q116 618 102 628.50Q88 639 70 643.50Q52 648 34 648L34 662L362 662L362 648Q344 648 326 643.50Q308 639 294 628.50Q280 618 271 601.50Q262 585 262 562L262 100Q262 77 271 62Q280 47 294 38Q308 29 326 25.50Q344 22 362 22L362 0L34 0Z"  horiz-adv-x="396" vert-adv-y="1000"  />

      
      <glyph glyph-name="uni4a" unicode="&#x4a;" d="M414 146Q414 108 395 78Q376 48 345.50 27Q315 6 276-5.50Q237-17 198-17Q166-17 133-10.50Q100-4 73.50 10Q47 24 30 46Q13 68 13 99Q13 125 33 144Q53 163 79 163Q106 163 123 151.50Q140 140 151 122.50Q162 105 169.50 85Q177 65 184.50 47.50Q192 30 201.50 18.50Q211 7 227 7Q246 7 258 20Q270 33 276 51.50Q282 70 284 90.50Q286 111 286 127L286 562Q286 585 277 601.50Q268 618 254 628.50Q240 639 222 643.50Q204 648 186 648L186 662L514 662L514 648Q496 648 478 643.50Q460 639 446 628.50Q432 618 423 601.50Q414 585 414 562L414 146L414 146Z"  horiz-adv-x="534" vert-adv-y="1000"  />

      
      <glyph glyph-name="uni4b" unicode="&#x4b;" d="M607 96Q629 52 660.50 37Q692 22 728 22L728 0L387 0L387 22Q405 22 422.50 25.50Q440 29 451.50 37Q463 45 466 58.50Q469 72 459 92L331 344L266 282L266 100Q266 77 276.50 62Q287 47 301 38Q315 29 330 25.50Q345 22 353 22L353 0L38 0L38 22Q56 22 74 25.50Q92 29 106 38Q120 47 129 62Q138 77 138 100L138 562Q138 585 129 601.50Q120 618 106 628.50Q92 639 74 643.50Q56 648 38 648L38 662L366 662L366 648Q348 648 330 643.50Q312 639 298 628.50Q284 618 275 601.50Q266 585 266 562L266 317L448 486Q465 502 475 528.50Q485 555 483 580.50Q481 606 465.50 626Q450 646 416 648L416 662L717 662L717 648Q699 648 676 637.50Q653 627 629.50 611Q606 595 584 576Q562 557 545 541L433 434L607 96L607 96Z"  horiz-adv-x="733" vert-adv-y="1000"  />

      
      <glyph glyph-name="uni4c" unicode="&#x4c;" d="M35 23Q53 23 71 26.50Q89 30 103 39Q117 48 126 63Q135 78 135 101L135 563Q135 586 126 602.50Q117 619 103 629.50Q89 640 71 644.50Q53 649 35 649L35 663L363 663L363 649Q345 649 327 644.50Q309 640 295 629.50Q281 619 272 602.50Q263 586 263 563L263 101Q263 54 281 38.50Q299 23 335 23L382 23Q407 23 435.50 48Q464 73 497 103.50Q530 134 568 159Q606 184 651 184Q619 132 602 78.50Q585 25 579-31Q567-20 552-14Q537-8 521-5Q505-2 489.50-1Q474 0 461 0L35 0L35 23Z"  horiz-adv-x="656" vert-adv-y="1000"  />

      
      <glyph glyph-name="uni4d" unicode="&#x4d;" d="M334 662L472 257L570 662L817 662L817 648Q761 648 737 621.50Q713 595 720 558L798 135Q804 102 812.50 80Q821 58 833.50 45.50Q846 33 864 27.50Q882 22 909 22L909 0L578 0L578 22Q611 22 629.50 32.50Q648 43 656 60.50Q664 78 664 101.50Q664 125 661 152L578 586L430-18L229 571L192 219Q187 175 193 139Q199 103 212.50 77Q226 51 246 36.50Q266 22 291 22L291 0L30 0L30 22Q48 22 69.50 38Q91 54 110 78Q129 102 142.50 129.50Q156 157 158 180L198 562Q198 585 189 601.50Q180 618 166 628.50Q152 639 134 643.50Q116 648 98 648L98 662L334 662Z"  horiz-adv-x="940" vert-adv-y="1000"  />

      
      <glyph glyph-name="uni4e" unicode="&#x4e;" d="M174 531L174 180Q174 157 183 129.50Q192 102 206.50 78Q221 54 240 38Q259 22 279 22L279 0L34 0L34 22Q52 22 71.50 38Q91 54 107 78Q123 102 133 129.50Q143 157 143 180L143 497Q143 520 138 547Q133 574 120.50 596.50Q108 619 86 633.50Q64 648 30 648L30 662L239 662L583 232L583 490Q583 516 572 544Q561 572 544.50 595Q528 618 510 633Q492 648 479 648L479 662L707 662L707 648Q689 648 671 632Q653 616 638.50 592Q624 568 615.50 540.50Q607 513 607 490L607-18L174 531Z"  horiz-adv-x="735" vert-adv-y="1000"  />

      
      <glyph glyph-name="uni4f" unicode="&#x4f;" d="M366 655Q316 655 283.50 624.50Q251 594 232 547Q213 500 205.50 443.50Q198 387 198 334Q198 281 205.50 223.50Q213 166 232 118Q251 70 283.50 39Q316 8 366 8Q416 8 446.50 39Q477 70 494 118Q511 166 516.50 223.50Q522 281 522 334Q522 387 517 443.50Q512 500 496 547Q480 594 449 624.50Q418 655 366 655M366 677Q433 677 489.50 648.50Q546 620 587 573Q628 526 650.50 463.50Q673 401 673 334Q673 266 650.50 203Q628 140 587 91.50Q546 43 489.50 13.50Q433-16 366-16Q297-16 239 13Q181 42 138.50 90Q96 138 72.50 201.50Q49 265 49 334Q49 402 73 464Q97 526 139.50 573.50Q182 621 240 649Q298 677 366 677Z"  horiz-adv-x="722" vert-adv-y="1000"  />

      
      <glyph glyph-name="uni50" unicode="&#x50;" d="M392 307Q416 307 434 319Q452 331 464 351Q476 371 482.50 396.50Q489 422 489 448Q489 483 475.50 517Q462 551 440 577.50Q418 604 391.50 620.50Q365 637 340 637Q311 637 288.50 617.50Q266 598 266 569L266 307L392 307M347 662Q373 662 405 655.50Q437 649 469.50 636.50Q502 624 533.50 605Q565 586 589 561.50Q613 537 628 506.50Q643 476 643 440Q643 408 631.50 379.50Q620 351 600 328.50Q580 306 552.50 293Q525 280 494 280L266 280L266 100Q266 77 275 62Q284 47 298 38Q312 29 330 25.50Q348 22 366 22L366 0L38 0L38 22Q56 22 74 25.50Q92 29 106 38Q120 47 129 62Q138 77 138 100L138 562Q138 585 129 601.50Q120 618 106 628.50Q92 639 74 643.50Q56 648 38 648L38 662L347 662L347 662Z"  horiz-adv-x="659" vert-adv-y="1000"  />

      
      <glyph glyph-name="uni51" unicode="&#x51;" d="M366 675Q433 675 489.50 646.50Q546 618 587 571Q628 524 650.50 461.50Q673 399 673 332Q673 264 650.50 201Q628 138 587 89.50Q546 41 489.50 11.50Q433-18 366-18Q358-18 350.50-17.50Q343-17 335-16L296-102Q304-96 317-86.50Q330-77 346-69Q362-61 381-55Q400-49 420-49Q439-49 454.50-52Q470-55 484-59Q498-63 513.50-66Q529-69 548-69Q573-69 587.50-52Q602-35 613-15L627-24Q622-47 606-75Q590-103 566-127Q542-151 511-167Q480-183 445-183Q427-183 411.50-179.50Q396-176 380.50-172.50Q365-169 348.50-165.50Q332-162 312-162Q283-162 262.50-176Q242-190 224-207L311-13Q253-2 204.50 30Q156 62 121.50 108Q87 154 68 211.50Q49 269 49 331Q49 399 73 461Q97 523 139.50 570.50Q182 618 240 646Q298 674 366 674L366 675M365 653Q315 653 282.50 622.50Q250 592 231 545Q212 498 204.50 441.50Q197 385 197 332Q197 285 202.50 235Q208 185 222.50 140Q237 95 261 61Q285 27 321 14L363 107L385 97L345 8Q350 7 355.50 6.50Q361 6 366 6Q416 6 446.50 37Q477 68 494 116Q511 164 516.50 221.50Q522 279 522 332Q522 385 517 441.50Q512 498 496 545Q480 592 449 622.50Q418 653 366 653L365 653Z"  horiz-adv-x="722" vert-adv-y="1000"  />

      
      <glyph glyph-name="uni52" unicode="&#x52;" d="M377 325Q425 325 449.50 360Q474 395 474 448Q474 483 461 517Q448 551 427.50 577.50Q407 604 381 620.50Q355 637 330 637Q301 637 283.50 617.50Q266 598 266 569L266 325L377 325M471 300L571 82Q584 58 613 40Q642 22 676 22L678 0L460 0L327 300L266 300L266 100Q266 77 275 62Q284 47 298 38Q312 29 330 25.50Q348 22 366 22L366 0L38 0L38 22Q56 22 74 25.50Q92 29 106 38Q120 47 129 62Q138 77 138 100L138 562Q138 585 129 601.50Q120 618 106 628.50Q92 639 74 643.50Q56 648 38 648L38 662L347 662Q389 662 439 648.50Q489 635 531.50 608.50Q574 582 602.50 541.50Q631 501 631 447Q631 415 620 388.50Q609 362 589.50 342Q570 322 543 311Q516 300 485 300L471 300Z"  horiz-adv-x="689" vert-adv-y="1000"  />

      
      <glyph glyph-name="uni53" unicode="&#x53;" d="M33 230Q60 230 82 221Q104 212 123.50 197Q143 182 160 162.50Q177 143 193 122Q210 99 228 78Q246 57 267.50 41.50Q289 26 314.50 16.50Q340 7 371 7Q393 7 412.50 15.50Q432 24 446.50 38Q461 52 469.50 71.50Q478 91 478 113Q478 159 451 190Q424 221 386 239L213 320Q187 332 163 347.50Q139 363 120.50 383Q102 403 90.50 428Q79 453 79 484Q79 524 94 559Q109 594 135 620.50Q161 647 196 662.50Q231 678 271 678Q295 678 314.50 673Q334 668 353 662Q372 656 391.50 651Q411 646 435 646Q476 646 503 667Q498 615 506.50 563.50Q515 512 533 464Q494 468 464 495Q434 522 405 555Q389 573 372.50 591Q356 609 337.50 623Q319 637 297 645.50Q275 654 249 654Q215 654 190 631Q165 608 165 574Q165 543 180 518Q195 493 218 482L461 364Q481 354 501 336.50Q521 319 536.50 295Q552 271 561.50 243Q571 215 571 184Q571 136 554.50 99Q538 62 509.50 36.50Q481 11 443.50-2.50Q406-16 364-16Q333-16 305.50-9Q278-2 253 7Q228 16 204 23Q180 30 155 30Q130 30 110 22.50Q90 15 73-3Q74 27 74 56.50Q74 86 70.50 115.50Q67 145 58 174Q49 203 33 230Z"  horiz-adv-x="612" vert-adv-y="1000"  />

      
      <glyph glyph-name="uni54" unicode="&#x54;" d="M405 100Q405 77 414 62Q423 47 437 38Q451 29 469 25.50Q487 22 505 22L505 0L177 0L177 22Q195 22 213 25.50Q231 29 245 38Q259 47 268 62Q277 77 277 100L277 562Q277 609 264 626Q251 643 234 643Q211 643 190.50 620Q170 597 145 568.50Q120 540 87 515.50Q54 491 8 489Q32 531 48 583Q64 635 64 682Q81 671 99 666.50Q117 662 137 662L314 662L543 662Q563 662 583 666.50Q603 671 618 682Q620 634 633.50 585.50Q647 537 674 489Q618 502 584.50 527.50Q551 553 528.50 578.50Q506 604 488.50 623Q471 642 448 642Q431 642 418 625.50Q405 609 405 562L405 100Z"  horiz-adv-x="682" vert-adv-y="1000"  />

      
      <glyph glyph-name="uni55" unicode="&#x55;" d="M266 136Q266 110 277.50 87.50Q289 65 309.50 48.50Q330 32 358.50 22.50Q387 13 422 13Q458 13 487 23Q516 33 537 51Q558 69 569.50 94Q581 119 581 148L581 467Q581 492 573.50 519.50Q566 547 551.50 572.50Q537 598 517 618.50Q497 639 473 648L473 662L710 662L710 648Q690 635 671 613.50Q652 592 638 567Q624 542 615.50 516Q607 490 607 467L607 144Q607 99 588 68Q569 37 537.50 17Q506-3 465-12Q424-21 379-21Q336-21 292.50-13.50Q249-6 214 12Q179 30 156.50 60Q134 90 134 135L134 562Q134 585 125 601.50Q116 618 102 628.50Q88 639 70 643.50Q52 648 34 648L34 662L366 662L366 648Q348 648 330 643.50Q312 639 298 628.50Q284 618 275 601.50Q266 585 266 562L266 136L266 136Z"  horiz-adv-x="733" vert-adv-y="1000"  />

      
      <glyph glyph-name="uni56" unicode="&#x56;" d="M346 661L344 647Q315 646 298.50 639.50Q282 633 273.50 622.50Q265 612 262.50 599Q260 586 258 573L428 163L545 437Q552 453 553 485.50Q554 518 546.50 552Q539 586 522 613.50Q505 641 477 647L477 661L736 661L736 647Q710 638 689 619.50Q668 601 650.50 578Q633 555 620 530.50Q607 506 598 486L370-38L112 566Q95 605 71.50 626.50Q48 648 12 648L12 662L346 661Z"  horiz-adv-x="744" vert-adv-y="1000"  />

      
      <glyph glyph-name="uni57" unicode="&#x57;" d="M103 568Q98 580 92 592.50Q86 605 76 616.50Q66 628 51 637Q36 646 12 649L12 663L321 663L321 649Q270 642 253 617Q236 592 245 568L400 174L509 439L455 574Q436 611 413 627Q390 643 367 648L367 662L687 662L687 648Q666 644 646.50 638Q627 632 614 621.50Q601 611 597 595Q593 579 602 556L751 174L866 465Q872 480 870.50 507Q869 534 860 561.50Q851 589 835 613Q819 637 795 648L794 662L1059 662L1059 648Q1030 632 1005 609.50Q980 587 959.50 562Q939 537 923 511Q907 485 898 463L694-26L522 405L346-26L103 568Z"  horiz-adv-x="1064" vert-adv-y="1000"  />

      
      <glyph glyph-name="uni58" unicode="&#x58;" d="M15 22Q32 22 55.50 34.50Q79 47 103 65Q127 83 148.50 104.50Q170 126 182 144L302 316L168 550Q163 559 154 575.50Q145 592 132 608Q119 624 101 636Q83 648 60 648L60 662L368 662L368 648Q355 648 340.50 642Q326 636 316 625Q306 614 303 598.50Q300 583 311 565L404 402L462 500Q477 525 478.50 550Q480 575 472 595.50Q464 616 449.50 630.50Q435 645 417 648L417 662L660 662L660 648Q633 636 606.50 616.50Q580 597 557.50 575.50Q535 554 518 533Q501 512 492 499L415 380L586 88Q593 76 602 64.50Q611 53 623.50 43.50Q636 34 653 28Q670 22 693 22L693 0L351 0L350 22Q404 22 421.50 46.50Q439 71 422 100L308 294L234 164Q232 161 228 149Q224 137 221.50 121Q219 105 219.50 87.50Q220 70 225.50 55.50Q231 41 244 31.50Q257 22 280 22L280 0L8 0L12 22L15 22Z"  horiz-adv-x="704" vert-adv-y="1000"  />

      
      <glyph glyph-name="uni59" unicode="&#x59;" d="M409 100Q409 77 418 62Q427 47 441 38Q455 29 473 25.50Q491 22 509 22L509 0L181 0L181 22Q199 22 217 25.50Q235 29 249 38Q263 47 272 62Q281 77 281 100L281 279L94 597Q79 623 57.50 633Q36 643 11 648L11 662L325 662L325 648Q310 646 295.50 639.50Q281 633 271 623.50Q261 614 258 601.50Q255 589 263 574L398 333L473 461Q482 476 487.50 504.50Q493 533 490 562.50Q487 592 473 616.50Q459 641 428 648L428 662L685 662L685 648Q628 625 592 586Q556 547 528 501L409 305L409 100Z"  horiz-adv-x="697" vert-adv-y="1000"  />

      
      <glyph glyph-name="uni5a" unicode="&#x5a;" d="M303 636Q286 636 267.50 623.50Q249 611 229.50 593Q210 575 188 554Q166 533 142.50 516Q119 499 92.50 489.50Q66 480 37 484Q69 527 83.50 577.50Q98 628 105 679Q113 671 126 666.50Q139 662 153 662L585 662L183 25L327 25Q359 25 387 50Q415 75 445.50 105Q476 135 512.50 160Q549 185 599 185Q570 139 554.50 85.50Q539 32 539-30Q519-13 489.50-6.50Q460 0 431 0L11 0L413 636L303 636Z"  horiz-adv-x="616" vert-adv-y="1000"  />

      
      <glyph glyph-name="uni5b" unicode="&#x5b;" d="M95-58L95 712L315 712L315 680L187 680L187-27L315-27L315-58L95-58Z"  horiz-adv-x="370" vert-adv-y="1000"  />

      
      <glyph glyph-name="uni5c" unicode="&#x5c;" d="M311-52L260-52L-6 693L46 693L311-52Z"  horiz-adv-x="278" vert-adv-y="1000"  />

      
      <glyph glyph-name="uni5d" unicode="&#x5d;" d="M56-27L183-27L183 680L56 680L56 712L275 712L275-58L56-58L56-27Z"  horiz-adv-x="370" vert-adv-y="1000"  />

      
      <glyph glyph-name="uni60" unicode="&#x60;" d="M146 776Q172 776 182.50 765.50Q193 755 198 742L251 625L66 748Q58 754 58 763Q58 774 68 776L146 776Z"  horiz-adv-x="299" vert-adv-y="1000"  />

      
      <glyph glyph-name="uni61" unicode="&#x61;" d="M286 261Q269 257 245 247.50Q221 238 199.50 222.50Q178 207 163 184Q148 161 148 131Q148 99 169 75.50Q190 52 222 52Q233 52 243.50 56.50Q254 61 264 67Q275 74 286 83L286 261L286 261M274 446Q330 446 362.50 422.50Q395 399 395 371L395 102Q393 71 406.50 57.50Q420 44 442 44Q452 44 461 47Q470 50 475 54L480 49Q463 28 436 10.50Q409-7 374-7Q329-7 307 11.50Q285 30 281 57Q251 35 216 14Q181-7 135-7Q113-7 93 0Q73 7 58 19.50Q43 32 34 51Q25 70 25 94Q25 125 42 150.50Q59 176 85.50 196Q112 216 143.50 231Q175 246 204 256Q233 266 255.50 271.50Q278 277 286 279L286 382Q286 399 277 412.50Q268 426 252 426Q235 426 225.50 415.50Q216 405 208.50 388.50Q201 372 194 353.50Q187 335 177.50 318.50Q168 302 152.50 291.50Q137 281 113 281Q91 281 75 295Q59 309 59 331Q59 360 79 381.50Q99 403 130.50 417.50Q162 432 200 439Q238 446 274 446Z"  horiz-adv-x="488" vert-adv-y="1000"  />

      
      <glyph glyph-name="uni62" unicode="&#x62;" d="M193 93Q193 53 214 29Q235 5 268 5Q295 5 312.50 20Q330 35 340 58.50Q350 82 354 110Q358 138 358 165Q358 197 352 230.50Q346 264 332.50 292Q319 320 298.50 337.50Q278 355 250 355Q231 355 216 347.50Q201 340 193 332L193 93M81 541Q81 570 64 588.50Q47 607 2 607L2 617Q73 622 117.50 640Q162 658 193 681L193 356Q199 366 212 378.50Q225 391 242 402.50Q259 414 279.50 421.50Q300 429 322 429Q355 429 382 414Q409 399 428 374Q447 349 457.50 317Q468 285 468 252Q468 201 451.50 152.50Q435 104 405.50 66Q376 28 335.50 5Q295-18 248-18Q213-18 182.50-11Q152-4 129.50 10.50Q107 25 94 47.50Q81 70 81 101L81 541Z"  horiz-adv-x="500" vert-adv-y="1000"  />

      
      <glyph glyph-name="uni63" unicode="&#x63;" d="M215 440Q231 440 244 437Q257 434 269 430.50Q281 427 294 424Q307 421 323 421Q337 421 348 425.50Q359 430 365 438Q367 399 377.50 360Q388 321 411 282Q393 279 373 286Q353 293 335 304.50Q317 316 302.50 330Q288 344 282 356Q268 380 245 400.50Q222 421 199 421Q175 421 160.50 408.50Q146 396 138 376Q130 356 127.50 332Q125 308 125 286Q125 247 137.50 211Q150 175 173 147.50Q196 120 228 103Q260 86 299 86Q336 86 367.50 100.50Q399 115 411 144L421 143Q413 115 399 86Q385 57 364 33.50Q343 10 315-5Q287-20 253-20Q200-20 159-2.50Q118 15 89.50 46Q61 77 46 118.50Q31 160 31 208Q31 251 43.50 292.50Q56 334 80 367Q104 400 138 420Q172 440 215 440Z"  horiz-adv-x="444" vert-adv-y="1000"  />

      
      <glyph glyph-name="uni64" unicode="&#x64;" d="M219 414Q193 414 177.50 399Q162 384 153.50 361Q145 338 142 310.50Q139 283 139 257Q139 232 141.50 205.50Q144 179 150 155Q160 115 183 88Q206 61 250 61Q284 61 306 89L306 279Q306 295 302 318.50Q298 342 288.50 363Q279 384 262 399Q245 414 219 414M306 61Q300 51 288 38Q276 25 259 13.50Q242 2 221.50-6Q201-14 179-14Q144-14 116.50 1.50Q89 17 69 42Q49 67 38.50 99.50Q28 132 28 167Q28 215 42 262.50Q56 310 82.50 347Q109 384 146 407Q183 430 228 430Q254 430 275 425Q296 420 306 410L306 542Q306 571 289 589.50Q272 608 227 608L227 618Q298 623 342.50 641Q387 659 418 682L418 88Q418 64 425 49.50Q432 35 443.50 27Q455 19 468.50 16.50Q482 14 496 14L496 0L306 0L306 61Z"  horiz-adv-x="514" vert-adv-y="1000"  />

      
      <glyph glyph-name="uni65" unicode="&#x65;" d="M291 306Q291 325 287 347Q283 369 273.50 388.50Q264 408 249 421Q234 434 212 434Q189 434 173.50 423Q158 412 148 394Q138 376 133.50 353Q129 330 129 306L291 306M231 452Q268 452 301 438.50Q334 425 359 402Q384 379 398.50 348Q413 317 412 283L129 283Q128 238 140 203Q152 168 174.50 143Q197 118 228 105Q259 92 296 92Q334 92 363 103.50Q392 115 416 144L423 138Q415 108 395.50 80.50Q376 53 349 33Q322 13 288.50 1Q255-11 218-11Q177-11 142 6Q107 23 81.50 51.50Q56 80 42 117.50Q28 155 28 196Q28 249 43.50 295.50Q59 342 86.50 377Q114 412 151 432Q188 452 231 452Z"  horiz-adv-x="450" vert-adv-y="1000"  />

      
      <glyph glyph-name="uni66" unicode="&#x66;" d="M198 88Q198 64 205 49.50Q212 35 223.50 27Q235 19 248.50 16.50Q262 14 276 14L276 0L4 0L4 14Q17 14 31.50 16.50Q46 19 58 27Q70 35 78 49.50Q86 64 86 88L86 399L5 399L5 420L86 420L86 456Q86 460 83.50 468.50Q81 477 78 488Q75 499 72.50 512Q70 525 70 537Q70 564 79 588.50Q88 613 104.50 632Q121 651 143.50 662Q166 673 193 673Q209 673 224.50 668Q240 663 252 654Q264 645 271 632Q278 619 278 603Q278 578 260.50 560Q243 542 218 542Q203 542 190 549Q177 556 165.50 564Q154 572 144 579Q134 586 125 586Q112 586 104 577Q96 568 96 555Q96 534 109.50 510.50Q123 487 147 467Q171 447 203 434Q235 421 272 420L272 399L198 399L198 88Z"  horiz-adv-x="288" vert-adv-y="1000"  />

      
      <glyph glyph-name="uni67" unicode="&#x67;" d="M172-63Q164-65 151-70.50Q138-76 126-86Q114-96 105-110.50Q96-125 96-145Q96-172 111.50-190.50Q127-209 151-219.50Q175-230 204.50-234.50Q234-239 262-239Q286-239 313-237.50Q340-236 362.50-229Q385-222 399.50-208Q414-194 414-170Q414-151 398.50-136Q383-121 359-110.50Q335-100 306-92.50Q277-85 250-79.50Q223-74 201.50-70Q180-66 172-63M231 414Q208 414 196.50 400Q185 386 180.50 364.50Q176 343 175.50 317.50Q175 292 175 270Q175 247 175 222Q175 197 180 175Q185 153 196 139Q207 125 230 125Q252 125 264 139Q276 153 281 175Q286 197 286.50 222Q287 247 287 270Q287 292 286.50 317.50Q286 343 281.50 364.50Q277 386 265 400Q253 414 231 414M231 430Q266 430 298 418.50Q330 407 355 386Q362 392 373.50 400Q385 408 399 414.50Q413 421 429 425.50Q445 430 461 430Q483 430 501 417Q519 404 519 382Q519 362 503 350Q487 338 467 338Q453 338 440.50 344.50Q428 351 417.50 359Q407 367 397.50 373Q388 379 381 379Q376 379 373.50 377.50Q371 376 368 374Q388 354 399.50 327.50Q411 301 411 270Q411 235 396 205Q381 175 356 153.50Q331 132 298.50 120Q266 108 231 108Q199 108 171 117Q149 113 132.50 103Q116 93 116 83Q116 74 135 67Q154 60 172 56L333 20Q367 12 395.50 0.50Q424-11 445-28Q466-45 477.50-68Q489-91 489-121Q489-159 468.50-185.50Q448-212 414-228.50Q380-245 337.50-252Q295-259 251-259Q212-259 168.50-251.50Q125-244 88.50-230Q52-216 28.50-196Q5-176 5-150Q5-126 23-108Q41-90 64.50-78.50Q88-67 111-61Q134-55 143-55Q134-53 115.50-47Q97-41 78-30Q59-19 44.50-3.50Q30 12 30 33Q30 52 41 67.50Q52 83 69 94.50Q86 106 107 114Q128 122 148 126Q106 146 78.50 183.50Q51 221 51 270Q51 305 66 334.50Q81 364 106 385Q131 406 163.50 418Q196 430 231 430Z"  horiz-adv-x="527" vert-adv-y="1000"  />

      
      <glyph glyph-name="uni68" unicode="&#x68;" d="M11 14Q39 14 62 26Q85 38 85 69L85 550Q85 567 78.50 577.50Q72 588 62 595Q52 602 39.50 605Q27 608 15 610L15 618Q64 623 111 633.50Q158 644 201 676L201 354Q211 364 229.50 377Q248 390 271 402Q294 414 321 422.50Q348 431 376 431Q394 431 409.50 425.50Q425 420 436.50 411.50Q448 403 455 391.50Q462 380 462 368L462 69Q462 52 468.50 41.50Q475 31 485.50 25Q496 19 510 16.50Q524 14 538 14L538 0L292 0L292 14Q318 14 334.50 27Q351 40 351 69L351 304Q351 331 329.50 348.50Q308 366 276 366Q253 366 233.50 354.50Q214 343 203 335L203 69Q203 45 220.50 29.50Q238 14 267 14L267 0L13 0L13 14L11 14Z"  horiz-adv-x="553" vert-adv-y="1000"  />

      
      <glyph glyph-name="uni69" unicode="&#x69;" d="M85 553Q85 582 104.50 601.50Q124 621 153 621Q182 621 201.50 601.50Q221 582 221 553Q221 524 201.50 504.50Q182 485 153 485Q124 485 104.50 504.50Q85 524 85 553M16 14Q29 14 43.50 16.50Q58 19 70 27Q82 35 90 49.50Q98 64 98 88L98 308Q98 337 81 355.50Q64 374 19 374L19 384Q90 389 134.50 407Q179 425 210 448L210 88Q210 64 217 49.50Q224 35 235.50 27Q247 19 260.50 16.50Q274 14 288 14L288 0L16 0L16 14L16 14Z"  horiz-adv-x="306" vert-adv-y="1000"  />

      
      <glyph glyph-name="uni6a" unicode="&#x6a;" d="M109 308Q109 337 92 355.50Q75 374 30 374L30 384Q101 389 145.50 407Q190 425 221 448L221-61Q221-65 224-81.50Q227-98 227-113Q227-138 217-160Q207-182 190.50-198.50Q174-215 151.50-224.50Q129-234 104-234Q87-234 70.50-229Q54-224 41-214.50Q28-205 20-191Q12-177 12-160Q12-137 26.50-119Q41-101 64-101Q92-101 105-111.50Q118-122 126.50-134Q135-146 144-156.50Q153-167 171-167Q185-167 192-155Q199-143 199-129Q199-106 185-86.50Q171-67 154-50.50Q137-34 123-21.50Q109-9 109 0L109 308M89 553Q89 582 108.50 601.50Q128 621 157 621Q186 621 205.50 601.50Q225 582 225 553Q225 524 205.50 504.50Q186 485 157 485Q128 485 108.50 504.50Q89 524 89 553Z"  horiz-adv-x="260" vert-adv-y="1000"  />

      
      <glyph glyph-name="uni6b" unicode="&#x6b;" d="M11 14Q24 14 38.50 16.50Q53 19 65 27Q77 35 85 49.50Q93 64 93 88L93 542Q93 571 76 589.50Q59 608 14 608L14 618Q85 623 129.50 641Q174 659 205 682L205 188L307 285Q320 298 326.50 311.50Q333 325 333 345Q333 352 330.50 362.50Q328 373 322.50 382.50Q317 392 309 398.50Q301 405 290 405L290 419L498 419L498 405Q475 401 448.50 384.50Q422 368 399 348.50Q376 329 359 312Q342 295 339 292L325 279L463 78Q480 53 504.50 33.50Q529 14 559 14L559 0L285 0L285 14Q297 14 308.50 18.50Q320 23 327.50 31.50Q335 40 336.50 51Q338 62 329 76L244 202L205 166L205 88Q205 14 260 14L260 0L11 0L11 14L11 14Z"  horiz-adv-x="570" vert-adv-y="1000"  />

      
      <glyph glyph-name="uni6c" unicode="&#x6c;" d="M14 14Q27 14 41.50 16.50Q56 19 68 27Q80 35 88 49.50Q96 64 96 88L96 396L96 542Q96 571 79 589.50Q62 608 17 608L17 618Q88 623 132.50 641Q177 659 208 682L208 396L208 88Q208 64 215 49.50Q222 35 233.50 27Q245 19 258.50 16.50Q272 14 286 14L286 0L14 0L14 14L14 14Z"  horiz-adv-x="304" vert-adv-y="1000"  />

      
      <glyph glyph-name="uni6d" unicode="&#x6d;" d="M11 14Q24 14 38.50 16.50Q53 19 65 27Q77 35 85 49.50Q93 64 93 88L93 298Q93 327 76 345.50Q59 364 14 364L14 374Q49 377 77.50 384.50Q106 392 129.50 402Q153 412 171.50 424Q190 436 205 448L205 358Q224 372 244 385Q264 398 285 408Q306 418 329.50 424Q353 430 381 430Q405 430 420 424Q435 418 443 408Q451 398 454 384.50Q457 371 456 356Q477 375 500 389Q523 403 546 412Q569 421 590.50 425.50Q612 430 630 430Q662 430 684 417.50Q706 405 706 381L706 53Q706 38 725.50 26Q745 14 784 14L784 0L536 0L536 14Q571 14 583 29Q595 44 595 67L595 312Q595 342 574.50 355Q554 368 533 368Q509 368 489.50 358.50Q470 349 454 333L454 88Q454 48 465 31Q476 14 511 14L511 0L283 0L283 14Q296 14 307.50 16.50Q319 19 326.50 27Q334 35 338.50 49.50Q343 64 343 88L343 324Q343 330 338.50 337.50Q334 345 326.50 352Q319 359 309.50 363.50Q300 368 290 368Q264 368 245 360Q226 352 205 335L205 88Q205 40 220 27Q235 14 262 14L262 0L11 0L11 14L11 14Z"  horiz-adv-x="799" vert-adv-y="1000"  />

      
      <glyph glyph-name="uni6e" unicode="&#x6e;" d="M11 14Q24 14 38.50 16.50Q53 19 65 27Q77 35 85 49.50Q93 64 93 88L93 308Q93 337 76 355.50Q59 374 14 374L14 384Q85 389 129.50 407Q174 425 205 448L205 353Q212 360 230.50 373.50Q249 387 274 401Q299 415 329 425.50Q359 436 388 436Q410 436 425 429Q440 422 449.50 412.50Q459 403 463 392Q467 381 467 374L467 88Q467 64 475 49.50Q483 35 494 27Q505 19 517 16.50Q529 14 538 14L538 0L292 0L292 14Q301 14 311.50 16.50Q322 19 332 27Q342 35 348.50 49.50Q355 64 355 88L355 308Q355 337 335 353.50Q315 370 289 370Q264 370 241.50 358Q219 346 205 335L205 88Q205 64 212 49.50Q219 35 229.50 27Q240 19 251.50 16.50Q263 14 272 14L272 0L11 0L11 14L11 14Z"  horiz-adv-x="553" vert-adv-y="1000"  />

      
      <glyph glyph-name="uni6f" unicode="&#x6f;" d="M252 436Q217 436 198.50 415Q180 394 171.50 362Q163 330 161.50 291.50Q160 253 160 218Q160 183 161.50 144.50Q163 106 171.50 74Q180 42 198.50 21Q217 0 252 0Q287 0 305.50 21Q324 42 332.50 74Q341 106 342.50 144.50Q344 183 344 218Q344 253 342.50 291.50Q341 330 332.50 362Q324 394 305.50 415Q287 436 252 436M252 452Q299 452 340 433Q381 414 411 382Q441 350 458.50 307.50Q476 265 476 218Q476 171 458.50 128.50Q441 86 411 54Q381 22 340 3Q299-16 252-16Q205-16 164 3Q123 22 93 54Q63 86 45.50 128.50Q28 171 28 218Q28 265 45.50 307.50Q63 350 93 382Q123 414 164 433Q205 452 252 452Z"  horiz-adv-x="502" vert-adv-y="1000"  />

      
      <glyph glyph-name="uni70" unicode="&#x70;" d="M212 97Q212 86 216 69.50Q220 53 228.50 37.50Q237 22 251.50 11Q266 0 287 0Q313 0 330 17Q347 34 357.50 60.50Q368 87 372 118.50Q376 150 376 180Q376 210 370.50 241Q365 272 352.50 297.50Q340 323 321 339Q302 355 275 355Q255 355 239 347.50Q223 340 212 329L212 97M18-224Q31-224 45.50-221.50Q60-219 72-211Q84-203 92-188.50Q100-174 100-150L100 304Q100 333 83 351.50Q66 370 21 370L21 380Q92 385 136.50 403Q181 421 212 444L212 351Q219 361 232.50 375Q246 389 263.50 401Q281 413 301 421.50Q321 430 341 430Q377 430 404.50 413.50Q432 397 450.50 370Q469 343 479 308.50Q489 274 489 238Q489 190 470 143.50Q451 97 421 60.50Q391 24 354.50 2Q318-20 283-20Q263-20 243-15.50Q223-11 212-3L212-150Q212-174 219-188.50Q226-203 237.50-211Q249-219 262.50-221.50Q276-224 290-224L290-238L18-238L18-224L18-224Z"  horiz-adv-x="528" vert-adv-y="1000"  />

      
      <glyph glyph-name="uni71" unicode="&#x71;" d="M313 326Q313 336 307 350.50Q301 365 290 378Q279 391 263.50 400Q248 409 229 409Q204 409 187 393Q170 377 160 352Q150 327 146 297Q142 267 142 239Q142 213 147 181.50Q152 150 165 121.50Q178 93 198.50 74Q219 55 251 55Q271 55 286 61.50Q301 68 313 79L313 326M313 65Q307 55 295 41.50Q283 28 265 15.50Q247 3 224.50-5.50Q202-14 176-14Q141-14 114 0.50Q87 15 69 40.50Q51 66 41.50 100.50Q32 135 32 174Q32 224 48.50 270Q65 316 94.50 351.50Q124 387 165 408.50Q206 430 256 430Q274 430 292.50 425.50Q311 421 327 414Q343 407 355 398.50Q367 390 372 382L425 446L425-148Q425-172 432-186.50Q439-201 450.50-209Q462-217 475.50-219.50Q489-222 503-222L503-236L231-236L231-222Q244-222 258.50-219.50Q273-217 285-209Q297-201 305-186.50Q313-172 313-148L313 65L313 65Z"  horiz-adv-x="508" vert-adv-y="1000"  />

      
      <glyph glyph-name="uni72" unicode="&#x72;" d="M15 14Q28 14 42.50 16.50Q57 19 69 27Q81 35 89 49.50Q97 64 97 88L97 309Q97 338 80 356.50Q63 375 18 375L18 385Q89 390 133.50 408Q178 426 209 449L209 354Q215 362 228.50 375Q242 388 260.50 400Q279 412 300.50 421Q322 430 343 430Q370 430 391 413Q412 396 412 369Q412 342 392 325Q372 308 345 308Q329 308 316 314Q303 320 291 327.50Q279 335 268 341Q257 347 245 347Q233 347 225 342Q217 337 209 328L209 88Q209 64 216 49.50Q223 35 234.50 27Q246 19 259.50 16.50Q273 14 287 14L287 0L15 0L15 14L15 14Z"  horiz-adv-x="422" vert-adv-y="1000"  />

      
      <glyph glyph-name="uni73" unicode="&#x73;" d="M205 446Q217 446 233 443.50Q249 441 264.50 438Q280 435 293 432.50Q306 430 313 430Q329 430 340 433Q351 436 364 447Q361 362 401 294Q370 294 344 315Q318 336 293.50 361Q269 386 243 407Q217 428 187 428Q164 428 146.50 415Q129 402 129 379Q129 368 134 358Q139 348 146.50 340.50Q154 333 162.50 327.50Q171 322 178 319L335 253Q346 248 361.50 237Q377 226 391 210.50Q405 195 415 175.50Q425 156 425 134Q425 103 412.50 76Q400 49 379 29.50Q358 10 330-1Q302-12 271-12Q249-12 231-8.50Q213-5 196-1Q179 3 161 6.50Q143 10 121 10Q104 10 93 3Q82-4 66-10Q70 35 58 75Q46 115 28 154Q65 154 96.50 131.50Q128 109 156.50 81.50Q185 54 213 31Q241 8 273 8Q299 8 318 23Q337 38 337 63Q337 81 327 94.50Q317 108 306 117Q293 128 276 136L149 193Q107 212 80 243Q53 274 53 322Q53 350 65.50 373.50Q78 397 99 413Q120 429 147 438Q174 447 204 447L205 446Z"  horiz-adv-x="455" vert-adv-y="1000"  />

      
      <glyph glyph-name="uni74" unicode="&#x74;" d="M200 416L302 416L302 396L200 396L200 88Q201 62 221.50 51Q242 40 266 40Q279 40 292.50 47.50Q306 55 307 54L311 41Q291 26 275.50 15.50Q260 5 244.50-1.50Q229-8 212.50-11Q196-14 174-14Q152-14 136.50-7Q121 0 110.50 10Q100 20 95 32Q90 44 90 54L90 396L18 396L18 410Q87 424 128.50 475.50Q170 527 187 609L200 609L200 416Z"  horiz-adv-x="335" vert-adv-y="1000"  />

      
      <glyph glyph-name="uni75" unicode="&#x75;" d="M354 307Q354 336 337 354.50Q320 373 275 373L275 383Q346 388 390.50 406Q435 424 466 447L466 87Q466 63 473 48.50Q480 34 491.50 26Q503 18 516.50 15.50Q530 13 544 13L544-1L354-1L354 55Q348 50 330.50 38Q313 26 288.50 14Q264 2 235.50-7.50Q207-17 179-17Q143-17 119 4Q95 25 95 73L95 308Q95 337 78 355.50Q61 374 16 374L16 384Q87 389 131.50 407Q176 425 207 448L207 109Q207 81 228 64.50Q249 48 276 48Q302 50 324 60Q346 70 355 78L354 307Z"  horiz-adv-x="554" vert-adv-y="1000"  />

      
      <glyph glyph-name="uni76" unicode="&#x76;" d="M267 405Q239 405 223.50 394Q208 383 208 361Q208 353 211 348.50Q214 344 216 336L309 136L366 272Q368 277 370 294Q372 311 372 323Q372 338 367 352.50Q362 367 353.50 379Q345 391 334.50 398Q324 405 313 405L313 419L518 419L518 405Q509 405 493.50 395.50Q478 386 462 371.50Q446 357 431.50 339Q417 321 409 304L256-33L77 360Q69 379 48 391Q27 403 9 405L9 419L267 419L267 405L267 405Z"  horiz-adv-x="533" vert-adv-y="1000"  />

      
      <glyph glyph-name="uni77" unicode="&#x77;" d="M261 405Q211 405 211 365Q211 360 212 356Q213 352 215 347L314 127L389 290L345 379Q340 390 322.50 397.50Q305 405 288 405L288 419L547 419L547 405Q519 405 502.50 395Q486 385 486 363Q486 353 491 341Q493 335 496 329L589 127L641 247Q645 267 650 281Q655 295 655 315Q655 331 651 347Q647 363 639 376Q631 389 620 397Q609 405 594 405L594 419L793 419L793 405Q785 405 771 394.50Q757 384 742 369.50Q727 355 714.50 339Q702 323 697 313L539-33L404 261L266-33L91 351Q78 378 58.50 391.50Q39 405 17 405L17 419L261 419L261 405Z"  horiz-adv-x="803" vert-adv-y="1000"  />

      
      <glyph glyph-name="uni78" unicode="&#x78;" d="M289 405Q269 403 256 397Q243 391 243 374Q243 367 246 361Q249 355 251 353L314 265L341 300Q353 314 357.50 327.50Q362 341 362 360Q362 377 349.50 388Q337 399 323 405L323 419L507 419L507 405Q475 393 455 378Q435 363 424 352L324 252L464 64Q479 42 500 28Q521 14 551 14L551 0L273 0L273 14Q294 14 311 22Q328 30 328 49Q328 59 326 66.50Q324 74 318 81L243 183L201 132Q191 120 184 103Q177 86 177 66Q177 60 180.50 51Q184 42 190.50 34Q197 26 205 20Q213 14 222 14L222 0L14 0L14 14Q63 20 123 82L231 199L106 365Q93 382 76.50 393.50Q60 405 40 405L40 419L289 419L289 405Z"  horiz-adv-x="563" vert-adv-y="1000"  />

      
      <glyph glyph-name="uni79" unicode="&#x79;" d="M282 405Q254 406 239.50 394Q225 382 225 369Q225 364 227 354Q229 344 231 339L325 125L378 249Q385 264 386.50 277.50Q388 291 388 309Q388 377 329 405L329 419L535 419L535 405Q512 396 489 371.50Q466 347 447.50 319.50Q429 292 416 268.50Q403 245 400 238L218-167Q212-180 201.50-195Q191-210 176-223Q161-236 142-245Q123-254 102-254Q84-254 67.50-248.50Q51-243 38-233Q25-223 17-209Q9-195 9-177Q9-152 25.50-133.50Q42-115 67-115Q87-115 99.50-123.50Q112-132 122-142Q132-152 141-160.50Q150-169 163-169Q172-169 180-164Q188-159 194.50-151.50Q201-144 206.50-136Q212-128 215-121L266-14L93 360Q81 386 62.50 395.50Q44 405 25 405L25 419L283 419L282 405Z"  horiz-adv-x="552" vert-adv-y="1000"  />

      
      <glyph glyph-name="uni7a" unicode="&#x7a;" d="M173 20L246 20Q259 20 279 42Q299 64 325 89.50Q351 115 381.50 134Q412 153 446 146Q417 111 403.50 68.50Q390 26 382-20Q372-10 360.50-5Q349 0 338 0L30 0L284 400L234 400Q214 400 196 382.50Q178 365 157 344Q136 323 111.50 306.50Q87 290 56 292Q71 321 82.50 356Q94 391 100 433Q108 431 116 425.50Q124 420 138 420L428 420L173 20Z"  horiz-adv-x="482" vert-adv-y="1000"  />

      
      <glyph glyph-name="uni7b" unicode="&#x7b;" d="M373 641Q343 641 323.50 634.50Q304 628 293.50 614Q283 600 279 578Q275 556 275 525L275 464Q275 422 271 390.50Q267 359 255 337Q243 315 220 301Q197 287 159 279Q197 271 220 257Q243 243 255 221Q267 199 271 167.50Q275 136 275 94L275 33Q275 1 279-20.50Q283-42 293.50-55.50Q304-69 323.50-75.50Q343-82 373-82L373-107Q322-107 288.50-99.50Q255-92 234.50-74Q214-56 206-27Q198 2 198 45L198 133Q198 167 192.50 190.50Q187 214 173.50 229.50Q160 245 137 253.50Q114 262 78 265L78 294Q114 297 137.50 305.50Q161 314 174.50 329Q188 344 193 367.50Q198 391 198 426L198 514Q198 557 206.50 586.50Q215 616 235 633.50Q255 651 288.50 658.50Q322 666 373 666L373 641L373 641Z"  horiz-adv-x="450" vert-adv-y="1000"  />

      
      <glyph glyph-name="uni7c" unicode="&#x7c;" d="M265-212L186-212L186 688L265 688L265-212Z"  horiz-adv-x="450" vert-adv-y="1000"  />

      
      <glyph glyph-name="uni7d" unicode="&#x7d;" d="M253 426Q253 391 258 367.50Q263 344 276.50 329Q290 314 313.50 305.50Q337 297 373 294L373 265Q337 262 313.50 253.50Q290 245 276.50 229.50Q263 214 258 190.50Q253 167 253 133L253 45Q253 2 244.50-27Q236-56 216-74Q196-92 161.50-99.50Q127-107 76-107L76-82Q107-82 126-75.50Q145-69 156-55.50Q167-42 171-20.50Q175 1 175 33L175 94Q175 136 178.50 167.50Q182 199 194 221Q206 243 229 257Q252 271 291 279Q252 287 229 301.50Q206 316 194 338Q182 360 178.50 391Q175 422 175 464L175 525Q175 556 171 578Q167 600 156 614Q145 628 126 634.50Q107 641 76 641L76 666Q127 666 161.50 658.50Q196 651 216 633Q236 615 244.50 586Q253 557 253 514L253 426Z"  horiz-adv-x="450" vert-adv-y="1000"  />

      
      <glyph glyph-name="uni7e" unicode="&#x7e;" d="M672 264Q584 202 505 202Q473 202 440 211Q407 220 374 231.50Q341 243 309 252Q277 261 247 261Q208 261 167 243Q126 225 78 191L78 273Q171 336 248 336Q285 336 317.50 327Q350 318 380 306.50Q410 295 440.50 286Q471 277 506 277Q545 277 585.50 294.50Q626 312 672 345L672 264L672 264Z"  horiz-adv-x="750" vert-adv-y="1000"  />

      
      <glyph glyph-name="unia1" unicode="&#xa1;" d="M138-5Q103-5 78 18.50Q53 42 53 77L129 499L147 499L223 77Q223 42 198 18.50Q173-5 138-5M64 602Q64 633 85.50 654.50Q107 676 138 676Q169 676 190.50 654.50Q212 633 212 602Q212 571 190.50 549.50Q169 528 138 528Q107 528 85.50 549.50Q64 571 64 602Z"  horiz-adv-x="276" vert-adv-y="1000"  />

      
      <glyph glyph-name="unia2" unicode="&#xa2;" d="M450 105Q397 2 291-13L291-80L249-80L249-16Q205-15 168.50 0.50Q132 16 105.50 43Q79 70 64 107Q49 144 49 188Q49 236 66 279.50Q83 323 117 358Q173 417 249 429L249 494L291 494L291 432Q360 431 399.50 401Q439 371 439 330Q439 307 423.50 292.50Q408 278 384 278Q328 278 316 342Q312 362 308.50 376.50Q305 391 291 397L291 50L303 50Q374 50 427 124L450 105M249 396Q214 387 192.50 346.50Q171 306 171 236Q171 167 191.50 122.50Q212 78 249 59L249 396Z"  horiz-adv-x="500" vert-adv-y="1000"  />

      
      <glyph glyph-name="unia8" unicode="&#xa8;" d="M109 547Q109 571 126 588Q143 605 167 605Q191 605 208 588Q225 571 225 547Q225 523 208 506Q191 489 167 489Q143 489 126 506Q109 523 109 547M270 547Q270 571 287 588Q304 605 328 605Q352 605 369 588Q386 571 386 547Q386 523 369 506Q352 489 328 489Q304 489 287 506Q270 523 270 547Z"  horiz-adv-x="464" vert-adv-y="1000"  />

      
      <glyph glyph-name="uniab" unicode="&#xab;" d="M68 234L255 378L255 367L159 234L255 99L255 89L68 234M208 234L395 378L395 367L299 234L395 99L395 89L208 234Z"  horiz-adv-x="451" vert-adv-y="1000"  />

      
      <glyph glyph-name="unib4" unicode="&#xb4;" d="M283 776Q293 774 293 763Q293 754 285 748L100 625L153 742Q158 755 168.50 765.50Q179 776 205 776L283 776Z"  horiz-adv-x="344" vert-adv-y="1000"  />

      
      <glyph glyph-name="unib8" unicode="&#xb8;" d="M143-53Q149-55 158.50-61Q168-67 177-76.50Q186-86 192.50-98Q199-110 199-123Q199-150 185-169Q171-188 149-199.50Q127-211 101-216.50Q75-222 50-222L50-206Q73-206 93-194.50Q113-183 113-158Q113-136 94.50-121Q76-106 45-106L183 6L198-10L143-53Z"  horiz-adv-x="244" vert-adv-y="1000"  />

      
      <glyph glyph-name="unibb" unicode="&#xbb;" d="M383 233L196 89L196 100L292 233L196 368L196 378L383 233M243 233L56 89L56 100L152 233L56 368L56 378L243 233Z"  horiz-adv-x="451" vert-adv-y="1000"  />

      
      <glyph glyph-name="uni2013" unicode="&#x2013;" d="M0 249L450 249L450 172L0 172L0 249Z"  horiz-adv-x="450" vert-adv-y="1000"  />

      
      <glyph glyph-name="uni2014" unicode="&#x2014;" d="M900 249L900 172L0 172L0 249L900 249Z"  horiz-adv-x="900" vert-adv-y="1000"  />

      
      <glyph glyph-name="uni2018" unicode="&#x2018;" d="M43 517Q43 550 59 579.50Q75 609 97.50 632.50Q120 656 144 671.50Q168 687 183 691L183 677Q178 675 164.50 665Q151 655 137 640.50Q123 626 112 608Q101 590 101 571Q101 552 110.50 548.50Q120 545 132 545Q155 545 171.50 528Q188 511 188 488Q188 460 167.50 442.50Q147 425 119 425Q101 425 87 433Q73 441 63.50 453.50Q54 466 48.50 482.50Q43 499 43 517Z"  horiz-adv-x="263" vert-adv-y="1000"  />

      
      <glyph glyph-name="uni2019" unicode="&#x2019;" d="M208 599Q208 566 191.50 536.50Q175 507 152.50 483.50Q130 460 106.50 444.50Q83 429 68 425L68 439Q73 441 86.50 451Q100 461 114 475.50Q128 490 139 508Q150 526 150 545Q150 564 140.50 567.50Q131 571 119 571Q96 571 79.50 588Q63 605 63 628Q63 656 83.50 673.50Q104 691 132 691Q150 691 164 683Q178 675 187.50 662.50Q197 650 202.50 633.50Q208 617 208 599Z"  horiz-adv-x="251" vert-adv-y="1000"  />

      
      <glyph glyph-name="uni201A" unicode="&#x201A;" d="M195 47Q195 13 180.50-17Q166-47 144.50-70.50Q123-94 96.50-110Q70-126 46-132L46-118Q60-114 74.50-104.50Q89-95 101-82.50Q113-70 120.50-53.50Q128-37 128-18Q128-7 124.50 3.50Q121 14 110 14Q85 14 67 27.50Q49 41 49 72Q49 103 69 125Q89 147 120 147Q135 147 149 138.50Q163 130 173 115.50Q183 101 189 83Q195 65 195 47Z"  horiz-adv-x="251" vert-adv-y="1000"  />

      
      <glyph glyph-name="uni201C" unicode="&#x201C;" d="M63 517Q63 550 79 579.50Q95 609 117.50 632.50Q140 656 164 671.50Q188 687 203 691L203 677Q198 675 184.50 665Q171 655 157 640.50Q143 626 132 608Q121 590 121 571Q121 552 130.50 548.50Q140 545 152 545Q175 545 191.50 528Q208 511 208 488Q208 460 187.50 442.50Q167 425 139 425Q121 425 107 433Q93 441 83.50 453.50Q74 466 68.50 482.50Q63 499 63 517M263 517Q263 550 279 579.50Q295 609 317.50 632.50Q340 656 364 671.50Q388 687 403 691L403 677Q398 675 384.50 665Q371 655 357 640.50Q343 626 332 608Q321 590 321 571Q321 552 330.50 548.50Q340 545 352 545Q375 545 391.50 528Q408 511 408 488Q408 460 387.50 442.50Q367 425 339 425Q321 425 307 433Q293 441 283.50 453.50Q274 466 268.50 482.50Q263 499 263 517Z"  horiz-adv-x="451" vert-adv-y="1000"  />

      
      <glyph glyph-name="uni201D" unicode="&#x201D;" d="M388 599Q388 566 371.50 536.50Q355 507 332.50 483.50Q310 460 286.50 444.50Q263 429 248 425L248 439Q253 441 266.50 451Q280 461 294 475.50Q308 490 319 508Q330 526 330 545Q330 564 320.50 567.50Q311 571 299 571Q276 571 259.50 588Q243 605 243 628Q243 656 263.50 673.50Q284 691 312 691Q330 691 344 683Q358 675 367.50 662.50Q377 650 382.50 633.50Q388 617 388 599M188 599Q188 566 171.50 536.50Q155 507 132.50 483.50Q110 460 86.50 444.50Q63 429 48 425L48 439Q53 441 66.50 451Q80 461 94 475.50Q108 490 119 508Q130 526 130 545Q130 564 120.50 567.50Q111 571 99 571Q76 571 59.50 588Q43 605 43 628Q43 656 63.50 673.50Q84 691 112 691Q130 691 144 683Q158 675 167.50 662.50Q177 650 182.50 633.50Q188 617 188 599Z"  horiz-adv-x="464" vert-adv-y="1000"  />

      
      <glyph glyph-name="uni201E" unicode="&#x201E;" d="M419 47Q419 13 404.50-17Q390-47 368.50-70.50Q347-94 320.50-110Q294-126 270-132L270-118Q284-114 298.50-104.50Q313-95 325-82.50Q337-70 344.50-53.50Q352-37 352-18Q352-7 348.50 3.50Q345 14 334 14Q309 14 291 27.50Q273 41 273 72Q273 103 293 125Q313 147 344 147Q359 147 373 138.50Q387 130 397 115.50Q407 101 413 83Q419 65 419 47M195 47Q195 13 180.50-17Q166-47 144.50-70.50Q123-94 96.50-110Q70-126 46-132L46-118Q60-114 74.50-104.50Q89-95 101-82.50Q113-70 120.50-53.50Q128-37 128-18Q128-7 124.50 3.50Q121 14 110 14Q85 14 67 27.50Q49 41 49 72Q49 103 69 125Q89 147 120 147Q135 147 149 138.50Q163 130 173 115.50Q183 101 189 83Q195 65 195 47Z"  horiz-adv-x="475" vert-adv-y="1000"  />

      
      <glyph glyph-name="uni2026" unicode="&#x2026;" d="M446 73Q446 104 467.50 125.50Q489 147 520 147Q551 147 572.50 125.50Q594 104 594 73Q594 42 572.50 20.50Q551-1 520-1Q489-1 467.50 20.50Q446 42 446 73M246 73Q246 104 267.50 125.50Q289 147 320 147Q351 147 372.50 125.50Q394 104 394 73Q394 42 372.50 20.50Q351-1 320-1Q289-1 267.50 20.50Q246 42 246 73M46 73Q46 104 67.50 125.50Q89 147 120 147Q151 147 172.50 125.50Q194 104 194 73Q194 42 172.50 20.50Q151-1 120-1Q89-1 67.50 20.50Q46 42 46 73Z"  horiz-adv-x="650" vert-adv-y="1000"  />

      
      <glyph glyph-name="uni2039" unicode="&#x2039;" d="M58 234L245 378L245 367L149 234L245 99L245 89L58 234Z"  horiz-adv-x="313" vert-adv-y="1000"  />

      
      <glyph glyph-name="uni203A" unicode="&#x203A;" d="M255 233L68 89L68 100L164 233L68 368L68 378L255 233Z"  horiz-adv-x="313" vert-adv-y="1000"  />

      
      <glyph glyph-name="uni0410" unicode="&#x0410;" d="M635 98Q646 66 675.50 44Q705 22 741 22L741 0L400 0L400 22Q415 22 434 27.50Q453 33 468.50 43.50Q484 54 491.50 70.50Q499 87 491 109L449 228L195 228L168 147Q166 138 170.50 117.50Q175 97 186 75.50Q197 54 215 38Q233 22 257 22L257 0L4 0L4 22Q23 22 44 38.50Q65 55 84 77.50Q103 100 117 123.50Q131 147 136 161L312 603Q296 620 274.50 630.50Q253 641 229 641L229 663L561 663L561 641Q546 641 527 635.50Q508 630 492.50 619.50Q477 609 469.50 592.50Q462 576 470 554L635 98M335 565Q333 568 332 571.50Q331 575 329 578L207 264L435 264L335 565L335 565Z"  horiz-adv-x="754" vert-adv-y="1000"  />

      
      <glyph glyph-name="uni0412" unicode="&#x0412;" d="M22 22Q40 22 58 25.50Q76 29 90 38Q104 47 113 62Q122 77 122 100L122 562Q122 585 113 601.50Q104 618 90 628.50Q76 639 58 643.50Q40 648 22 648L22 662L338 662Q384 662 437 653Q490 644 535 624Q580 604 609.50 572.50Q639 541 639 496Q639 462 617 437Q595 412 565.50 395.50Q536 379 506.50 370Q477 361 462 360Q491 356 529 344Q567 332 601.50 309.50Q636 287 660 253Q684 219 684 170Q684 126 660 94Q636 62 599.50 41Q563 20 520.50 10Q478 0 441 0L22 0L22 22M361 377Q388 377 414 386.50Q440 396 460.50 412.50Q481 429 494 452.50Q507 476 507 504Q507 535 491 559Q475 583 450.50 599.50Q426 616 396 624.50Q366 633 338 633Q320 633 302 629Q284 625 270 617Q256 609 247 595Q238 581 238 562L238 377L361 377L361 377M238 100Q238 53 256 37.50Q274 22 310 22L397 22Q423 22 450 34.50Q477 47 498.50 68.50Q520 90 533 118.50Q546 147 546 179Q544 215 527 246Q510 277 484 299.50Q458 322 426.50 334.50Q395 347 364 347L238 347L238 100Z"  horiz-adv-x="704" vert-adv-y="1000"  />

      
      <glyph glyph-name="uni0413" unicode="&#x0413;" d="M19 22Q37 22 55 25.50Q73 29 87 38Q101 47 110 62Q119 77 119 100L119 562Q119 585 110 601.50Q101 618 87 628.50Q73 639 55 643.50Q37 648 19 648L19 662L338 662L561 662Q562 641 562.50 620Q563 599 566.50 577Q570 555 578 533Q586 511 602 488Q569 495 547 505.50Q525 516 508.50 528.50Q492 541 478 556.50Q464 572 448 590Q432 607 412 620.50Q392 634 366 634L330 634L306 634Q296 634 285.50 629.50Q275 625 266.50 617Q258 609 252.50 597.50Q247 586 247 572L247 100Q247 77 256 62Q265 47 279 38Q293 29 311 25.50Q329 22 347 22L347 0L19 0L19 22Z"  horiz-adv-x="613" vert-adv-y="1000"  />

      
      <glyph glyph-name="uni0415" unicode="&#x0415;" d="M657 181Q628 132 613 79.50Q598 27 592-28Q556-8 519-4Q482 0 448 0L38 0L38 22Q56 22 74 25.50Q92 29 106 38Q120 47 129 62Q138 77 138 100L138 562Q138 585 129 601.50Q120 618 106 628.50Q92 639 74 643.50Q56 648 38 648L38 662L580 662Q581 620 588.50 577Q596 534 628 488L627 479Q594 486 571.50 497.50Q549 509 531 524Q513 539 498 555.50Q483 572 467 590Q451 607 431 620.50Q411 634 385 634L325 634Q315 634 304.50 629.50Q294 625 285.50 617Q277 609 271.50 597.50Q266 586 266 572L266 370L403 370Q430 368 447.50 378Q465 388 482 401Q499 414 519.50 427Q540 440 573 445Q557 405 556.50 356Q556 307 573 262Q555 260 533.50 272.50Q512 285 489.50 301Q467 317 445 330.50Q423 344 403 344L266 344L266 77Q266 63 272.50 53Q279 43 288.50 36.50Q298 30 308 27Q318 24 325 24L403 24Q421 25 437.50 37Q454 49 470.50 66.50Q487 84 505 104Q523 124 545 141Q567 158 594.50 169.50Q622 181 657 181Z"  horiz-adv-x="695" vert-adv-y="1000"  />

      
      <glyph glyph-name="uni0416" unicode="&#x0416;" d="M395 0L395 22Q403 22 417.50 25.50Q432 29 446.50 38Q461 47 471.50 62Q482 77 482 100L482 282L417 344L289 92Q278 72 281.50 58.50Q285 45 296.50 37Q308 29 325.50 25.50Q343 22 361 22L361 0L20 0L20 22Q56 22 87 37Q118 52 141 96L315 434L203 541Q186 557 164 576Q142 595 118.50 611Q95 627 72 637.50Q49 648 31 648L31 662L332 662L332 648Q298 646 282.50 626Q267 606 265 580.50Q263 555 273 528.50Q283 502 300 486L482 317L482 562Q482 585 473 601.50Q464 618 450 628.50Q436 639 418 643.50Q400 648 382 648L382 662L710 662L710 648Q692 648 674 643.50Q656 639 642 628.50Q628 618 619 601.50Q610 585 610 562L610 317L792 486Q809 502 819 528.50Q829 555 827 580.50Q825 606 809.50 626Q794 646 760 648L760 662L1061 662L1061 648Q1043 648 1020 637.50Q997 627 973.50 611Q950 595 928 576Q906 557 889 541L777 434L951 96Q973 52 1004.50 37Q1036 22 1072 22L1072 0L731 0L731 22Q749 22 766.50 25.50Q784 29 795.50 37Q807 45 810 58.50Q813 72 803 92L675 344L610 282L610 100Q610 77 620.50 62Q631 47 645 38Q659 29 674 25.50Q689 22 697 22L697 0L395 0Z"  horiz-adv-x="1094" vert-adv-y="1000"  />

      
      <glyph glyph-name="uni0418" unicode="&#x0418;" d="M531 492L262 107L262 100Q262 77 271 62Q280 47 294 38Q308 29 326 25.50Q344 22 362 22L362 0L34 0L34 22Q52 22 70 25.50Q88 29 102 38Q116 47 125 62Q134 77 134 100L134 562Q134 585 125 601.50Q116 618 102 628.50Q88 639 70 643.50Q52 648 34 648L34 662L362 662L362 648Q344 648 326 643.50Q308 639 294 628.50Q280 618 271 601.50Q262 585 262 562L262 168L531 553L531 562Q531 585 522 601.50Q513 618 499 628.50Q485 639 467 643.50Q449 648 431 648L431 662L759 662L759 648Q741 648 723 643.50Q705 639 691 628.50Q677 618 668 601.50Q659 585 659 562L659 100Q659 77 668 62Q677 47 691 38Q705 29 723 25.50Q741 22 759 22L759 0L431 0L431 22Q449 22 467 25.50Q485 29 499 38Q513 47 522 62Q531 77 531 100L531 492Z"  horiz-adv-x="793" vert-adv-y="1000"  />

      
      <glyph glyph-name="uni0419" unicode="&#x0419;" d="M531 100Q531 77 522 62Q513 47 499 38Q485 29 467 25.50Q449 22 431 22L431 0L759 0L759 22Q741 22 723 25.50Q705 29 691 38Q677 47 668 62Q659 77 659 100L659 562Q659 585 668 601.50Q677 618 691 628.50Q705 639 723 643.50Q741 648 759 648L759 662L431 662L431 648Q449 648 467 643.50Q485 639 499 628.50Q513 618 522 601.50Q531 585 531 562L531 553L262 168L262 562Q262 585 271 601.50Q280 618 294 628.50Q308 639 326 643.50Q344 648 362 648L362 662L34 662L34 648Q52 648 70 643.50Q88 639 102 628.50Q116 618 125 601.50Q134 585 134 562L134 100Q134 77 125 62Q116 47 102 38Q88 29 70 25.50Q52 22 34 22L34 0L362 0L362 22Q344 22 326 25.50Q308 29 294 38Q280 47 271 62Q262 77 262 100L262 107L531 492L531 100M551 824Q554 807 545.50 790.50Q537 774 521.50 760Q506 746 486 736.50Q466 727 446 724Q426 720 403 720.50Q380 721 360 724Q339 727 318.50 736.50Q298 746 282.50 760Q267 774 258 790.50Q249 807 252 824Q255 842 269.50 849.50Q284 857 300 855.50Q316 854 329 844.50Q342 835 341 818Q340 806 341.50 793Q343 780 348 769Q355 756 370 749.50Q385 743 401.50 742.50Q418 742 432.50 748.50Q447 755 455 767Q462 778 463.50 791.50Q465 805 464 818Q463 835 475.50 844.50Q488 854 504 855.50Q520 857 534.50 849.50Q549 842 551 824Z"  horiz-adv-x="793" vert-adv-y="1000"  />

      
      <glyph glyph-name="uni041A" unicode="&#x041A;" d="M477 363L607 96Q629 52 660.50 37Q692 22 728 22L728 0L387 0L387 22Q405 22 423 25.50Q441 29 453 37.50Q465 46 468 59Q471 72 459 92L356 322L266 322L266 100Q266 77 276.50 62Q287 47 301 38Q315 29 330 25.50Q345 22 353 22L353 0L38 0L38 22Q56 22 74 25.50Q92 29 106 38Q120 47 129 62Q138 77 138 100L138 562Q138 585 129 601.50Q120 618 106 628.50Q92 639 74 643.50Q56 648 38 648L38 662L366 662L366 648Q348 648 330 643.50Q312 639 298 628.50Q284 618 275 601.50Q266 585 266 562L266 357L275 357Q280 357 287 356.50Q294 356 305 356Q327 355 341.50 356.50Q356 358 366.50 365Q377 372 386 386Q395 400 405 426Q412 444 418 463.50Q424 483 431 503Q436 519 441.50 535Q447 551 453 566Q462 589 473 609Q484 629 498 644Q515 662 546.50 671Q578 680 607.50 675.50Q637 671 657 652Q677 633 671 595Q666 566 646.50 548.50Q627 531 599 526Q588 524 573.50 528.50Q559 533 544 538Q529 543 515 545Q501 547 492 540Q482 532 473.50 519Q465 506 458 490Q451 474 444.50 456Q438 438 432 421Q426 404 420 388.50Q414 373 407 363L477 363Z"  horiz-adv-x="747" vert-adv-y="1000"  />

      
      <glyph glyph-name="uni041C" unicode="&#x041C;" d="M320 662L458 257L556 662L803 662L803 648Q747 648 723 621.50Q699 595 706 558L784 135Q790 102 798.50 80Q807 58 819.50 45.50Q832 33 850 27.50Q868 22 895 22L895 0L564 0L564 22Q597 22 615.50 32.50Q634 43 642 60.50Q650 78 650 101.50Q650 125 647 152L564 586L416-18L215 571L178 219Q173 175 179 139Q185 103 198.50 77Q212 51 232 36.50Q252 22 277 22L277 0L16 0L16 22Q34 22 55.50 38Q77 54 96 78Q115 102 128.50 129.50Q142 157 144 180L184 562Q184 585 175 601.50Q166 618 152 628.50Q138 639 120 643.50Q102 648 84 648L84 662L320 662Z"  horiz-adv-x="911" vert-adv-y="1000"  />

      
      <glyph glyph-name="uni041D" unicode="&#x041D;" d="M415 0L415 22Q433 22 451 25.50Q469 29 483 38Q497 47 506 62Q515 77 515 100L515 340L246 340L246 100Q246 77 255 62Q264 47 278 38Q292 29 310 25.50Q328 22 346 22L346 0L18 0L18 22Q36 22 54 25.50Q72 29 86 38Q100 47 109 62Q118 77 118 100L118 562Q118 585 109 601.50Q100 618 86 628.50Q72 639 54 643.50Q36 648 18 648L18 662L346 662L346 648Q328 648 310 643.50Q292 639 278 628.50Q264 618 255 601.50Q246 585 246 562L246 376L515 376L515 562Q515 585 506 601.50Q497 618 483 628.50Q469 639 451 643.50Q433 648 415 648L415 662L743 662L743 648Q725 648 707 643.50Q689 639 675 628.50Q661 618 652 601.50Q643 585 643 562L643 100Q643 77 652 62Q661 47 675 38Q689 29 707 25.50Q725 22 743 22L743 0L415 0Z"  horiz-adv-x="773" vert-adv-y="1000"  />

      
      <glyph glyph-name="uni041E" unicode="&#x041E;" d="M343 655Q293 655 260.50 624.50Q228 594 209 547Q190 500 182.50 443.50Q175 387 175 334Q175 281 182.50 223.50Q190 166 209 118Q228 70 260.50 39Q293 8 343 8Q393 8 423.50 39Q454 70 471 118Q488 166 493.50 223.50Q499 281 499 334Q499 387 494 443.50Q489 500 473 547Q457 594 426 624.50Q395 655 343 655M343 677Q410 677 466.50 648.50Q523 620 564 573Q605 526 627.50 463.50Q650 401 650 334Q650 266 627.50 203Q605 140 564 91.50Q523 43 466.50 13.50Q410-16 343-16Q274-16 216 13Q158 42 115.50 90Q73 138 49.50 201.50Q26 265 26 334Q26 402 50 464Q74 526 116.50 573.50Q159 621 217 649Q275 677 343 677Z"  horiz-adv-x="684" vert-adv-y="1000"  />

      
      <glyph glyph-name="uni041F" unicode="&#x041F;" d="M346 646Q328 646 310 641.50Q292 637 278 626.50Q264 616 255 599.50Q246 583 246 560L246 340L246 100Q246 77 255 62Q264 47 278 38Q292 29 310 25.50Q328 22 346 22L346 0L18 0L18 22Q36 22 54 25.50Q72 29 86 38Q100 47 109 62Q118 77 118 100L118 562Q118 585 109 601.50Q100 618 86 628.50Q72 639 54 643.50Q36 648 18 648L18 662L743 662L743 648Q725 648 707 643.50Q689 639 675 628.50Q661 618 652 601.50Q643 585 643 562L643 100Q643 77 652 62Q661 47 675 38Q689 29 707 25.50Q725 22 743 22L743 0L415 0L415 22Q433 22 451 25.50Q469 29 483 38Q497 47 506 62Q515 77 515 100L515 340L515 560Q515 583 506 599.50Q497 616 483 626.50Q469 637 451 641.50Q433 646 415 646L346 646Z"  horiz-adv-x="767" vert-adv-y="1000"  />

      
      <glyph glyph-name="uni0420" unicode="&#x0420;" d="M373 307Q397 307 415 319Q433 331 445 351Q457 371 463.50 396.50Q470 422 470 448Q470 483 456.50 517Q443 551 421 577.50Q399 604 372.50 620.50Q346 637 321 637Q292 637 269.50 617.50Q247 598 247 569L247 307L373 307M328 662Q384 663 437.50 649Q491 635 532.50 606.50Q574 578 599 536Q624 494 624 440Q624 408 612.50 379.50Q601 351 581 328.50Q561 306 533.50 293Q506 280 475 280L247 280L247 100Q247 77 256 62Q265 47 279 38Q293 29 311 25.50Q329 22 347 22L347 0L19 0L19 22Q37 22 55 25.50Q73 29 87 38Q101 47 110 62Q119 77 119 100L119 562Q119 585 110 601.50Q101 618 87 628.50Q73 639 55 643.50Q37 648 19 648L19 662L328 662L328 662Z"  horiz-adv-x="643" vert-adv-y="1000"  />

      
      <glyph glyph-name="uni0421" unicode="&#x0421;" d="M520 672Q521 616 535.50 564Q550 512 580 464Q550 459 527.50 466.50Q505 474 486.50 489Q468 504 452 523.50Q436 543 421 564Q408 581 394.50 597Q381 613 365.50 625.50Q350 638 331.50 645.50Q313 653 290 653Q248 653 221 630Q194 607 177.50 571Q161 535 154.50 491.50Q148 448 148 406Q148 347 166 292Q184 237 217.50 193.50Q251 150 298 124Q345 98 404 98Q464 98 502.50 130Q541 162 570 218L580 209Q564 159 539.50 117.50Q515 76 482.50 46.50Q450 17 408.50 0.50Q367-16 316-16Q243-16 188 12.50Q133 41 95.50 88.50Q58 136 39 198Q20 260 20 328Q20 394 40 456.50Q60 519 97.50 568Q135 617 188 646.50Q241 676 307 676Q330 676 354.50 671.50Q379 667 400.50 662Q422 657 438.50 652.50Q455 648 463 648Q481 648 492 656.50Q503 665 520 672Z"  horiz-adv-x="603" vert-adv-y="1000"  />

      
      <glyph glyph-name="uni0422" unicode="&#x0422;" d="M405 100Q405 77 414 62Q423 47 437 38Q451 29 469 25.50Q487 22 505 22L505 0L177 0L177 22Q195 22 213 25.50Q231 29 245 38Q259 47 268 62Q277 77 277 100L277 562Q277 609 264 626Q251 643 234 643Q211 643 190.50 620Q170 597 145 568.50Q120 540 87 515.50Q54 491 8 489Q32 531 48 583Q64 635 64 682Q81 671 99 666.50Q117 662 137 662L543 662Q563 662 583 666.50Q603 671 618 682Q620 634 633.50 585.50Q647 537 674 489Q618 502 584.50 527.50Q551 553 528.50 578.50Q506 604 488.50 623Q471 642 448 642Q431 642 418 625.50Q405 609 405 562L405 100Z"  horiz-adv-x="682" vert-adv-y="1000"  />

      
      <glyph glyph-name="uni0425" unicode="&#x0425;" d="M15 22Q32 22 55.50 34.50Q79 47 103 65Q127 83 148.50 104.50Q170 126 182 144L302 316L168 550Q163 559 154 575.50Q145 592 132 608Q119 624 101 636Q83 648 60 648L60 662L368 662L368 648Q355 648 340.50 642Q326 636 316 625Q306 614 303 598.50Q300 583 311 565L404 402L462 500Q477 525 478.50 550Q480 575 472 595.50Q464 616 449.50 630.50Q435 645 417 648L417 662L660 662L660 648Q633 636 606.50 616.50Q580 597 557.50 575.50Q535 554 518 533Q501 512 492 499L415 380L586 88Q593 76 602 64.50Q611 53 623.50 43.50Q636 34 653 28Q670 22 693 22L693 0L351 0L350 22Q404 22 421.50 46.50Q439 71 422 100L308 294L234 164Q232 161 228 149Q224 137 221.50 121Q219 105 219.50 87.50Q220 70 225.50 55.50Q231 41 244 31.50Q257 22 280 22L280 0L8 0L12 22L15 22Z"  horiz-adv-x="704" vert-adv-y="1000"  />

      
      <glyph glyph-name="uni0426" unicode="&#x0426;" d="M23 0L23 14Q41 14 59 18.50Q77 23 91 33.50Q105 44 114 60.50Q123 77 123 100L123 562Q123 585 114 600Q105 615 91 624Q77 633 59 636.50Q41 640 23 640L23 662L351 662L351 640Q333 640 315 636.50Q297 633 283 624Q269 615 260 600Q251 585 251 562L251 322L251 102Q251 79 260 62.50Q269 46 283 35.50Q297 25 315 20.50Q333 16 351 16L420 16Q438 16 456 20.50Q474 25 488 35.50Q502 46 511 62.50Q520 79 520 102L520 322L520 562Q520 585 511 600Q502 615 488 624Q474 633 456 636.50Q438 640 420 640L420 662L748 662L748 640Q730 640 712 636.50Q694 633 680 624Q666 615 657 600Q648 585 648 562L648 135Q647 85 658 54.50Q669 24 686 16Q713 3 744 49Q750 58 757 62Q764 66 768.50 63Q773 60 774 49.50Q775 39 771 21Q765-6 759.50-28Q754-50 752.50-72Q751-94 756.50-117Q762-140 778-168Q745-160 723-148.50Q701-137 685-123Q669-109 657-92Q645-75 631-55Q618-36 600-18.50Q582-1 554 0L23 0Z"  horiz-adv-x="795" vert-adv-y="1000"  />

      
      <glyph glyph-name="uni0428" unicode="&#x0428;" d="M22 0L22 14Q40 14 58 18.50Q76 23 90 33.50Q104 44 113 60.50Q122 77 122 100L122 562Q122 585 113 600Q104 615 90 624Q76 633 58 636.50Q40 640 22 640L22 662L350 662L350 640Q332 640 314 636.50Q296 633 282 624Q268 615 259 600Q250 585 250 562L250 322L250 102Q250 79 259 62.50Q268 46 282 35.50Q296 25 314 20.50Q332 16 350 16L419 16Q437 16 455 20.50Q473 25 487 35.50Q501 46 510 62.50Q519 79 519 102L519 322L519 562Q519 585 510 600Q501 615 487 624Q473 633 455 636.50Q437 640 419 640L419 662L747 662L747 640Q729 640 711 636.50Q693 633 679 624Q665 615 656 600Q647 585 647 562L647 322L647 102Q647 79 656 62.50Q665 46 679 35.50Q693 25 711 20.50Q729 16 747 16L816 16Q834 16 852 20.50Q870 25 884 35.50Q898 46 907 62.50Q916 79 916 102L916 322L916 562Q916 585 907 600Q898 615 884 624Q870 633 852 636.50Q834 640 816 640L816 662L1144 662L1144 640Q1126 640 1108 636.50Q1090 633 1076 624Q1062 615 1053 600Q1044 585 1044 562L1044 100Q1044 77 1053 60.50Q1062 44 1076 33.50Q1090 23 1108 18.50Q1126 14 1144 14L1144 0L419 0L22 0Z"  horiz-adv-x="1163" vert-adv-y="1000"  />

      
      <glyph glyph-name="uni0429" unicode="&#x0429;" d="M417 0L20 0L20 14Q38 14 56 18.50Q74 23 88 33.50Q102 44 111 60.50Q120 77 120 100L120 562Q120 585 111 600Q102 615 88 624Q74 633 56 636.50Q38 640 20 640L20 662L348 662L348 640Q330 640 312 636.50Q294 633 280 624Q266 615 257 600Q248 585 248 562L248 322L248 102Q248 79 257 62.50Q266 46 280 35.50Q294 25 312 20.50Q330 16 348 16L417 16Q435 16 453 20.50Q471 25 485 35.50Q499 46 508 62.50Q517 79 517 102L517 322L517 562Q517 585 508 600Q499 615 485 624Q471 633 453 636.50Q435 640 417 640L417 662L745 662L745 640Q727 640 709 636.50Q691 633 677 624Q663 615 654 600Q645 585 645 562L645 322L645 102Q645 79 654 62.50Q663 46 677 35.50Q691 25 709 20.50Q727 16 745 16L814 16Q832 16 850 20.50Q868 25 882 35.50Q896 46 905 62.50Q914 79 914 102L914 322L914 562Q914 585 905 600Q896 615 882 624Q868 633 850 636.50Q832 640 814 640L814 662L1142 662L1142 640Q1124 640 1106.50 636.50Q1089 633 1074.50 624Q1060 615 1051.50 600Q1043 585 1043 562L1043 135Q1043 93 1051 63.50Q1059 34 1072.50 21.50Q1086 9 1103.50 15Q1121 21 1139 49Q1145 58 1152 62Q1159 66 1163.50 63Q1168 60 1169 49.50Q1170 39 1166 21Q1160-6 1154.50-28Q1149-50 1147.50-72Q1146-94 1151.50-117Q1157-140 1173-168Q1140-160 1118-148.50Q1096-137 1080-123Q1064-109 1052-92Q1040-75 1026-55Q1013-36 995-18.50Q977-1 949 0L417 0Z"  horiz-adv-x="1185" vert-adv-y="1000"  />

      
      <glyph glyph-name="uni042E" unicode="&#x042E;" d="M684 677Q751 677 807.50 648.50Q864 620 905 573Q946 526 968.50 463.50Q991 401 991 334Q991 266 968.50 203Q946 140 905 91.50Q864 43 807.50 13.50Q751-16 684-16Q615-16 557 13Q499 42 456.50 90Q414 138 390.50 201.50Q367 265 367 334L367 340L262 340L262 100Q262 77 271 62Q280 47 294 38Q308 29 326 25.50Q344 22 362 22L362 0L34 0L34 22Q52 22 70 25.50Q88 29 102 38Q116 47 125 62Q134 77 134 100L134 562Q134 585 125 601.50Q116 618 102 628.50Q88 639 70 643.50Q52 648 34 648L34 662L362 662L362 648Q344 648 326 643.50Q308 639 294 628.50Q280 618 271 601.50Q262 585 262 562L262 376L369 376Q376 437 402.50 492Q429 547 470.50 588Q512 629 566.50 653Q621 677 684 677M684 655Q634 655 601.50 624.50Q569 594 550 547Q531 500 523.50 443.50Q516 387 516 334Q516 281 523.50 223.50Q531 166 550 118Q569 70 601.50 39Q634 8 684 8Q734 8 764.50 39Q795 70 812 118Q829 166 834.50 223.50Q840 281 840 334Q840 387 835 443.50Q830 500 814 547Q798 594 767 624.50Q736 655 684 655Z"  horiz-adv-x="1017" vert-adv-y="1000"  />

      
      <glyph glyph-name="uni042F" unicode="&#x042F;" d="M430 325L430 569Q430 598 412.50 617.50Q395 637 366 637Q340 637 314.50 620.50Q289 604 268.50 577.50Q248 551 235 517Q222 483 222 448Q222 395 246.50 360Q271 325 319 325L430 325M211 300Q179 300 152.50 311Q126 322 106.50 342Q87 362 76 388.50Q65 415 65 447Q65 501 86.50 541.50Q108 582 145.50 608.50Q183 635 235 648.50Q287 662 349 662L658 662L658 648Q640 648 622 643.50Q604 639 590 628.50Q576 618 567 601.50Q558 585 558 562L558 100Q558 77 567 62Q576 47 590 38Q604 29 622 25.50Q640 22 658 22L658 0L330 0L330 22Q348 22 366 25.50Q384 29 398 38Q412 47 421 62Q430 77 430 100L430 300L369 300L236 0L18 0L20 22Q54 22 83 40Q112 58 125 82L225 300L211 300Z"  horiz-adv-x="682" vert-adv-y="1000"  />

      
      <glyph glyph-name="uni0411" unicode="&#x0411;" d="M120 562Q120 585 111 601.50Q102 618 87.50 628.50Q73 639 55 643.50Q37 648 19 648L19 662L571 662Q572 620 579.50 577Q587 534 619 488Q586 495 563 505.50Q540 516 522 528.50Q504 541 489 556.50Q474 572 458 590Q442 607 422 620.50Q402 634 376 634L305 634Q295 634 284.50 629.50Q274 625 265.50 617Q257 609 251.50 597.50Q246 586 246 572L246 378Q307 378 349 377Q391 376 421.50 373Q452 370 475 365Q498 360 522 352Q552 342 582.50 326Q613 310 637 288Q661 266 676.50 236.50Q692 207 692 170Q692 126 668 94Q644 62 607.50 41Q571 20 528.50 10Q486 0 449 0L19 0L19 22Q37 22 55 25.50Q73 29 87 38Q101 47 110 62Q119 77 119 100L120 562M246 100Q246 53 264 37.50Q282 22 318 22L399 22Q425 22 452 34.50Q479 47 500.50 68.50Q522 90 535 118.50Q548 147 548 179Q547 239 520.50 273.50Q494 308 451.50 325Q409 342 355.50 346.50Q302 351 246 350L246 100Z"  horiz-adv-x="716" vert-adv-y="1000"  />

      
      <glyph glyph-name="uni0414" unicode="&#x0414;" d="M117 0Q128 19 141.50 59Q155 99 168.50 150.50Q182 202 193 261Q204 320 210 378Q216 436 215.50 488Q215 540 206 578Q202 593 191.50 605.50Q181 618 167.50 627.50Q154 637 139 642Q124 647 111 647L111 661L335 660L383 660L679 660L679 646Q661 646 643 640Q625 634 611 623Q597 612 588 595Q579 578 579 557L580 135Q580 93 588 63.50Q596 34 609.50 21.50Q623 9 640.50 15Q658 21 676 49Q682 58 689 62Q696 66 700.50 63Q705 60 706 49.50Q707 39 703 21Q697-6 691.50-28Q686-50 684.50-72Q683-94 688.50-117Q694-140 710-168Q677-160 655-148.50Q633-137 617-123Q601-109 589-92Q577-75 563-55Q550-36 532-18.50Q514-1 486 0L450 0L233 0Q207-1 190-16.50Q173-32 160-51Q146-71 133.50-88Q121-105 104.50-119Q88-133 65.50-144.50Q43-156 10-164Q27-135 29.50-110Q32-85 27.50-62Q23-39 15.50-15Q8 9 6 37Q3 58 12 66Q21 74 32 66Q44 57 52.50 49Q61 41 71 35Q81 29 96 25.50Q111 22 135 22L368 22Q392 20 408 29.50Q424 39 433.50 56.50Q443 74 447 98.50Q451 123 451 152L451 551Q451 589 430.50 613.50Q410 638 379 643Q372 645 357.50 645Q343 645 335 644Q306 641 281.50 624Q257 607 256 563Q255 542 252.50 505Q250 468 244 420Q238 369 229.50 310Q221 251 209 193Q197 135 180.50 81.50Q164 28 143-12L117 0Z"  horiz-adv-x="718" vert-adv-y="1000"  />

      
      <glyph glyph-name="uni0417" unicode="&#x0417;" d="M568 199Q568 153 551 116Q539 89 517.50 68Q496 47 469 32Q442 17 411.50 7Q381-3 351-8Q335-10 320-11.50Q305-13 289-13Q267-13 246.50-12Q226-11 206-7Q168-2 132.50 14.50Q97 31 70 55Q43 79 28.50 108Q14 137 19 168Q23 201 46 215.50Q69 230 94 227Q119 224 138.50 206Q158 188 156 157Q155 137 156.50 114.50Q158 92 166 72Q174 52 190 37Q206 22 233 18Q247 16 259.50 14.50Q272 13 285 13Q313 13 339 22Q374 35 396 69.50Q418 104 422 169Q426 239 409.50 274Q393 309 363.50 323.50Q334 338 295 338.50Q256 339 215 339L215 374Q265 373 298.50 379Q332 385 352.50 400.50Q373 416 383 441.50Q393 467 397 505Q400 533 396 560Q392 587 381.50 608Q371 629 355 642Q339 655 318 654Q292 653 272.50 643.50Q253 634 237 619.50Q221 605 207.50 586.50Q194 568 179 550Q165 533 151 516.50Q137 500 122 487Q107 474 90 465.50Q73 457 54 454Q71 503 77.50 555Q84 607 77 658Q103 638 146 640Q170 641 187.50 645.50Q205 650 221 656Q237 662 254.50 668Q272 674 296 677Q336 682 372 675.50Q408 669 437 653.50Q466 638 486.50 615.50Q507 593 518 568Q524 554 526.50 538.50Q529 523 529 508Q528 488 522 467.50Q516 447 502 430Q482 404 443 385.50Q404 367 353 361Q426 358 476 334Q526 310 548 274Q568 241 568 199Z"  horiz-adv-x="578" vert-adv-y="1000"  />

      
      <glyph glyph-name="uni041B" unicode="&#x041B;" d="M180 55Q200 73 214.50 100Q229 127 240 159Q253 200 261 246.50Q269 293 273 336Q277 379 278 415.50Q279 452 279 474Q279 531 268 578Q264 593 253.50 605.50Q243 618 229.50 627.50Q216 637 201 642Q186 647 173 647L173 660L406 660L735 660L735 646Q717 646 699 640Q681 634 667 623Q653 612 644 595Q635 578 635 557L635 100Q635 77 644 62Q653 47 667 38Q681 29 699 25.50Q717 22 735 22L735 0L407 0L407 22Q425 22 443 25.50Q461 29 475 38Q489 47 498 62Q507 77 507 100L507 551Q507 645 424 645Q408 645 390 641.50Q372 638 356.50 629Q341 620 330 604Q319 588 318 563Q316 524 314 474Q312 424 307.50 370Q303 316 295 261.50Q287 207 273 159Q257 103 233 64Q210 27 182.50 5.50Q155-16 108-16Q91-16 73.50-9.50Q56-3 41.50 8.50Q27 20 17.50 35.50Q8 51 8 70Q8 111 24.50 135Q41 159 64 167.50Q87 176 112 170.50Q137 165 152 147Q174 120 154 62Q152 51 159 46Q166 41 180 55Z"  horiz-adv-x="765" vert-adv-y="1000"  />

      
      <glyph glyph-name="uni0423" unicode="&#x0423;" d="M432 270Q465 339 491.50 394.50Q518 450 532 484Q543 511 546.50 537.50Q550 564 545.50 586Q541 608 527.50 624.50Q514 641 492 648L492 662L742 662L742 648Q714 637 690 623Q666 609 645 590.50Q624 572 605 546.50Q586 521 567 487Q519 395 485.50 320Q452 245 423 186Q394 127 363 83.50Q332 40 289 11Q257-11 217.50-10Q178-9 147 9Q115 28 99 66Q83 104 103 148Q112 167 132 178Q152 189 175 190.50Q198 192 218.50 183Q239 174 249 152Q256 136 251.50 114Q247 92 249 69Q250 55 264 51Q278 47 295 57Q310 65 328.50 88.50Q347 112 358 139L80 597Q65 623 43.50 633Q22 643-3 648L-3 662L319 662L319 648Q304 646 289.50 639.50Q275 633 265 623.50Q255 614 252 601.50Q249 589 257 574L432 270Z"  horiz-adv-x="730" vert-adv-y="1000"  />

      
      <glyph glyph-name="uni0424" unicode="&#x0424;" d="M306 0L306 22Q324 22 342 25.50Q360 29 374 38Q388 47 397 62Q406 77 406 100L406 150Q357 97 297 95Q233 91 184 108Q135 125 101 155Q67 185 47.50 225.50Q28 266 24 310Q23 318 23.50 318Q24 318 24 326Q25 374 43 420.50Q61 467 96 502Q131 537 182.50 557.50Q234 578 303 574Q330 572 356.50 561Q383 550 406 529L406 562Q406 585 397 601.50Q388 618 374 628.50Q360 639 342 643.50Q324 648 306 648L306 662L634 662L634 648Q616 648 598 643.50Q580 639 566 628.50Q552 618 543 601.50Q534 585 534 562L534 529Q579 571 637 574Q706 578 757.50 557.50Q809 537 844 502Q879 467 897 420.50Q915 374 916 326Q916 318 916.50 318Q917 318 916 310Q911 266 892 225.50Q873 185 839 155Q805 125 756 108Q707 91 643 95Q583 97 534 150L534 100Q534 77 543 62Q552 47 566 38Q580 29 598 25.50Q616 22 634 22L634 0L306 0M308 544Q278 548 253 532.50Q228 517 209.50 487.50Q191 458 181 417Q171 376 171 328L171 317Q172 279 178 244.50Q184 210 197.50 184Q211 158 234.50 141.50Q258 125 296 123Q322 127 349.50 142Q377 157 406 200L406 480Q380 515 356 527.50Q332 540 308 544M644 123Q682 125 705.50 141.50Q729 158 742.50 184Q756 210 761.50 244.50Q767 279 769 317L769 328Q769 376 759 417Q749 458 730.50 487.50Q712 517 687 532.50Q662 548 632 544Q607 540 583.50 527.50Q560 515 534 480L534 200Q563 157 590.50 142Q618 127 644 123Z"  horiz-adv-x="950" vert-adv-y="1000"  />

      
      <glyph glyph-name="uni0427" unicode="&#x0427;" d="M416 22Q434 22 452 25.50Q470 29 484 38Q498 47 507 62Q516 77 516 100L516 312Q480 283 437.50 268Q395 253 352 250.50Q309 248 267.50 257Q226 266 193 284Q161 301 140 331.50Q119 362 119 405L119 562Q119 585 110 601.50Q101 618 87 628.50Q73 639 55 643.50Q37 648 19 648L19 662L351 662L351 648Q333 648 315 643.50Q297 639 283 628.50Q269 618 260 601.50Q251 585 251 562L251 406Q251 369 268.50 344Q286 319 313 306.50Q340 294 373 293.50Q406 293 436 305Q457 313 477.50 325.50Q498 338 516 355L516 562Q516 585 507 601.50Q498 618 484 628.50Q470 639 452 643.50Q434 648 416 648L416 662L744 662L744 648Q726 648 708 643.50Q690 639 676 628.50Q662 618 653 601.50Q644 585 644 562L644 100Q644 77 653 62Q662 47 676 38Q690 29 708 25.50Q726 22 744 22L744 0L416 0L416 22L416 22Z"  horiz-adv-x="767" vert-adv-y="1000"  />

      
      <glyph glyph-name="uni042C" unicode="&#x042C;" d="M131 562Q131 585 122 601.50Q113 618 98.50 628.50Q84 639 66 643.50Q48 648 30 648L30 662L358 662L358 648Q340 648 322 643.50Q304 639 290 628.50Q276 618 267 601.50Q258 585 258 562L258 378Q319 378 361 377Q403 376 433.50 373Q464 370 487 365Q510 360 534 352Q564 342 594.50 326Q625 310 649 288Q673 266 688.50 236.50Q704 207 704 170Q704 126 680 94Q656 62 619.50 41Q583 20 540.50 10Q498 0 461 0L31 0L31 22Q49 22 67 25.50Q85 29 99 38Q113 47 122 62Q131 77 131 100L131 562M258 100Q258 53 276 37.50Q294 22 330 22L411 22Q437 22 464 34.50Q491 47 512.50 68.50Q534 90 547 118.50Q560 147 560 179Q559 239 532.50 273.50Q506 308 463.50 325Q421 342 367.50 346.50Q314 351 258 350L258 100Z"  horiz-adv-x="730" vert-adv-y="1000"  />

      
      <glyph glyph-name="uni042B" unicode="&#x042B;" d="M131 562Q131 585 122 601.50Q113 618 98.50 628.50Q84 639 66 643.50Q48 648 30 648L30 662L358 662L358 648Q340 648 322 643.50Q304 639 290 628.50Q276 618 267 601.50Q258 585 258 562L258 378Q319 378 361 377Q403 376 433.50 373Q464 370 487 365Q510 360 534 352Q564 342 594.50 326Q625 310 649 288Q673 266 688.50 236.50Q704 207 704 170Q704 126 680 94Q656 62 619.50 41Q583 20 540.50 10Q498 0 461 0L31 0L31 22Q49 22 67 25.50Q85 29 99 38Q113 47 122 62Q131 77 131 100L131 562M258 100Q258 53 276 37.50Q294 22 330 22L411 22Q437 22 464 34.50Q491 47 512.50 68.50Q534 90 547 118.50Q560 147 560 179Q559 239 532.50 273.50Q506 308 463.50 325Q421 342 367.50 346.50Q314 351 258 350L258 100M741 0L741 22Q759 22 777 25.50Q795 29 809 38Q823 47 832 62Q841 77 841 100L841 562Q841 585 832 601.50Q823 618 809 628.50Q795 639 777 643.50Q759 648 741 648L741 662L1069 662L1069 648Q1051 648 1033 643.50Q1015 639 1001 628.50Q987 618 978 601.50Q969 585 969 562L969 100Q969 77 978 62Q987 47 1001 38Q1015 29 1033 25.50Q1051 22 1069 22L1069 0L741 0Z"  horiz-adv-x="1096" vert-adv-y="1000"  />

      
      <glyph glyph-name="uni042A" unicode="&#x042A;" d="M377 100Q377 53 395 37.50Q413 22 449 22L530 22Q556 22 583 34.50Q610 47 631.50 68.50Q653 90 666 118.50Q679 147 679 179Q678 239 651.50 273.50Q625 308 582.50 325Q540 342 486.50 346.50Q433 351 377 350L377 100M477 662L477 648Q459 648 441 643.50Q423 639 409 628.50Q395 618 386 601.50Q377 585 377 562L377 378Q438 378 480 377Q522 376 552.50 373Q583 370 606 365Q629 360 653 352Q683 342 713.50 326Q744 310 768 288Q792 266 807.50 236.50Q823 207 823 170Q823 126 799 94Q775 62 738.50 41Q702 20 659.50 10Q617 0 580 0L150 0L150 22Q168 22 186 25.50Q204 29 218 38Q232 47 241 62Q250 77 250 100L250 562Q250 595 243.50 612.50Q237 630 226 637Q217 643 207 643Q184 643 168 620Q152 597 132.50 568.50Q113 540 84.50 515.50Q56 491 10 489Q22 510 27.50 534Q33 558 35.50 583Q38 608 37.50 633.50Q37 659 37 682Q54 671 72 666.50Q90 662 110 662L149 662L250 662L477 662Z"  horiz-adv-x="846" vert-adv-y="1000"  />

      
      <glyph glyph-name="uni042D" unicode="&#x042D;" d="M312 651Q286 650 267 641Q248 632 232.50 618Q217 604 204 586Q191 568 176 550Q149 515 120 487Q91 459 53 454Q68 503 73.50 555Q79 607 71 658Q99 638 141 640Q165 641 182.50 645.50Q200 650 215.50 656Q231 662 248.50 668Q266 674 290 677Q362 680 417 651Q472 622 508.50 573Q545 524 564 460Q583 396 585 329Q587 251 559 182Q531 113 480.50 65Q430 17 361.50-4Q293-25 214-7Q176-2 140 14.50Q104 31 77 55Q50 79 34.50 108Q19 137 24 168Q28 201 50 215.50Q72 230 97 227Q122 224 142 206Q162 188 161 157Q160 128 165.50 94.50Q171 61 194 38Q213 20 241 16Q295 6 336.50 24.50Q378 43 401 91Q413 116 420.50 145.50Q428 175 432 207.50Q436 240 437 273Q438 306 437 337L437 357Q415 336 390.50 316.50Q366 297 352 295Q327 287 309 292.50Q291 298 276 308.50Q261 319 247.50 330.50Q234 342 219 346.50Q204 351 185.50 345Q167 339 141 314L126 322Q166 374 195.50 398.50Q225 423 248.50 428.50Q272 434 290.50 426Q309 418 327 406Q345 394 364.50 382.50Q384 371 410 370Q416 370 422.50 374.50Q429 379 435 386Q433 429 427 472Q421 515 407.50 551.50Q394 588 371 614.50Q348 641 312 651Z"  horiz-adv-x="607" vert-adv-y="1000"  />

      
      <glyph glyph-name="uni0404" unicode="&#x0404;" d="M301 649Q261 639 236.50 608.50Q212 578 198.50 535.50Q185 493 179 443.50Q173 394 171 348Q192 368 216 386Q240 404 253 406Q278 414 296 408.50Q314 403 329 392.50Q344 382 357 370.50Q370 359 385 354.50Q400 350 418.50 356Q437 362 464 387L478 379Q437 326 407 302Q377 278 353.50 272.50Q330 267 311.50 275Q293 283 275.50 295Q258 307 238 318.50Q218 330 193 331Q187 331 181 327Q175 323 170 318Q168 259 174 198Q180 137 203 91Q226 43 267.50 23.50Q309 4 363 14Q378 16 389.50 22Q401 28 410 36Q433 58 439.50 91Q446 124 444 153Q443 184 463.50 202Q484 220 509 223Q534 226 556.50 211.50Q579 197 582 164Q586 133 570 103.50Q554 74 526.50 51Q499 28 462.50 12.50Q426-3 389-7Q309-24 241-2.50Q173 19 123.50 67Q74 115 47 184Q20 253 23 331Q25 398 45.50 461.50Q66 525 103.50 573.50Q141 622 196 650Q251 678 323 675Q347 672 364.50 666Q382 660 398 654Q414 648 431.50 642.50Q449 637 473 636Q516 634 541 654Q533 603 538 551Q543 499 558 450Q519 455 490.50 483.50Q462 512 436 548Q422 566 409 584Q396 602 380.50 616Q365 630 346 639Q327 648 301 649Z"  horiz-adv-x="603" vert-adv-y="1000"  />

      
      <glyph glyph-name="uni0430" unicode="&#x0430;" d="M276 261Q259 257 235 247.50Q211 238 189.50 222.50Q168 207 153 184Q138 161 138 131Q138 99 159 75.50Q180 52 212 52Q223 52 233.50 56.50Q244 61 254 67Q265 74 276 83L276 261L276 261M264 446Q320 446 352.50 422.50Q385 399 385 371L385 102Q383 71 396.50 57.50Q410 44 432 44Q442 44 451 47Q460 50 465 54L470 49Q453 28 426 10.50Q399-7 364-7Q319-7 297 11.50Q275 30 271 57Q241 35 206 14Q171-7 125-7Q103-7 83 0Q63 7 48 19.50Q33 32 24 51Q15 70 15 94Q15 125 32 150.50Q49 176 75.50 196Q102 216 133.50 231Q165 246 194 256Q223 266 245.50 271.50Q268 277 276 279L276 382Q276 399 267 412.50Q258 426 242 426Q226 426 216 415.50Q206 405 198.50 388.50Q191 372 184 353.50Q177 335 167.50 318.50Q158 302 142.50 291.50Q127 281 103 281Q81 281 65 295Q49 309 49 331Q49 360 69 381.50Q89 403 120.50 417.50Q152 432 190 439Q228 446 264 446Z"  horiz-adv-x="481" vert-adv-y="1000"  />

      
      <glyph glyph-name="uni0435" unicode="&#x0435;" d="M291 306Q291 325 287 347Q283 369 273.50 388.50Q264 408 249 421Q234 434 212 434Q189 434 173.50 423Q158 412 148 394Q138 376 133.50 353Q129 330 129 306L291 306M231 452Q268 452 301 438.50Q334 425 359 402Q384 379 398.50 348Q413 317 412 283L129 283Q128 238 140 203Q152 168 174.50 143Q197 118 228 105Q259 92 296 92Q334 92 363 103.50Q392 115 416 144L423 138Q415 108 395.50 80.50Q376 53 349 33Q322 13 288.50 1Q255-11 218-11Q177-11 142 6Q107 23 81.50 51.50Q56 80 42 117.50Q28 155 28 196Q28 249 43.50 295.50Q59 342 86.50 377Q114 412 151 432Q188 452 231 452Z"  horiz-adv-x="450" vert-adv-y="1000"  />

      
      <glyph glyph-name="uni043E" unicode="&#x043E;" d="M252 436Q217 436 198.50 415Q180 394 171.50 362Q163 330 161.50 291.50Q160 253 160 218Q160 183 161.50 144.50Q163 106 171.50 74Q180 42 198.50 21Q217 0 252 0Q287 0 305.50 21Q324 42 332.50 74Q341 106 342.50 144.50Q344 183 344 218Q344 253 342.50 291.50Q341 330 332.50 362Q324 394 305.50 415Q287 436 252 436M252 452Q299 452 340 433Q381 414 411 382Q441 350 458.50 307.50Q476 265 476 218Q476 171 458.50 128.50Q441 86 411 54Q381 22 340 3Q299-16 252-16Q205-16 164 3Q123 22 93 54Q63 86 45.50 128.50Q28 171 28 218Q28 265 45.50 307.50Q63 350 93 382Q123 414 164 433Q205 452 252 452Z"  horiz-adv-x="502" vert-adv-y="1000"  />

      
      </font>
</defs>
</svg>
